<svg width="1341" height="1342" viewBox="0 0 1341 1342" fill="none" xmlns="http://www.w3.org/2000/svg">
<g clip-path="url(#clip0_93_1871)">
<rect width="1341" height="1342" fill="white"/>
<rect x="-1" y="805.2" width="268.4" height="268.4" fill="#1A4AFC"/>
<rect x="-1" y="1073.6" width="268.4" height="268.4" fill="url(#paint0_linear_93_1871)"/>
<rect x="0.341797" width="267.058" height="268.4" fill="#1A4AFC"/>
<rect x="267.4" y="1073.6" width="268.4" height="268.4" fill="#1A4AFC"/>
<rect x="1072.6" y="268.4" width="268.4" height="268.4" fill="url(#paint1_linear_93_1871)"/>
<rect x="535.799" y="268.4" width="268.4" height="268.4" fill="#1A4AFC"/>
<rect x="1073" width="268" height="269" fill="#1A4AFC"/>
<rect x="804.201" y="268.4" width="268.4" height="268.4" fill="#1A4AFC"/>
<rect x="535.799" y="805.2" width="268.4" height="536.8" fill="#1A4AFC"/>
<rect x="267.4" width="268.4" height="268.4" fill="url(#paint2_linear_93_1871)"/>
<rect x="535.799" width="268.4" height="268.4" fill="#1A4AFC"/>
<rect x="804.201" y="536.8" width="268.4" height="268.4" fill="#1A4AFC"/>
<rect x="537.142" y="536.8" width="268.4" height="268.4" fill="url(#paint3_linear_93_1871)"/>
<rect x="267.4" y="805.2" width="268.4" height="268.4" fill="url(#paint4_linear_93_1871)"/>
<rect x="1072.6" y="536.8" width="268.4" height="268.4" fill="url(#paint5_linear_93_1871)"/>
<rect x="0.341797" y="268.4" width="536.8" height="536.8" fill="url(#paint6_linear_93_1871)"/>
<rect x="804" width="269" height="269" fill="url(#paint7_linear_93_1871)"/>
<rect x="804.201" y="805.2" width="536.8" height="536.8" fill="url(#paint8_linear_93_1871)"/>
<path d="M1341 1074.14V805.2C1268.53 805.2 1198.21 819.694 1132.19 847.607C1068.31 874.447 1010.87 913.097 961.484 962.482C912.098 1011.87 873.448 1069.31 846.608 1133.18C818.695 1199.21 804.201 1269.53 804.201 1342H1073.14C1073.14 1193.84 1192.84 1074.14 1341 1074.14Z" fill="url(#paint9_linear_93_1871)"/>
<path d="M1341 1074.14V805.2C1268.53 805.2 1198.21 819.694 1132.19 847.607C1068.31 874.447 1010.87 913.097 961.484 962.482C912.098 1011.87 873.448 1069.31 846.608 1133.18C818.695 1199.21 804.201 1269.53 804.201 1342H1073.14C1073.14 1193.84 1192.84 1074.14 1341 1074.14Z" fill="url(#paint10_linear_93_1871)"/>
<path d="M535.8 537.337V268.4C463.332 268.4 393.011 282.894 326.985 310.807C263.106 337.647 205.668 376.297 156.282 425.682C106.897 475.068 68.2472 532.505 41.4072 596.385C13.4936 662.411 -1 732.732 -1 805.2H267.937C267.937 657.043 387.643 537.337 535.8 537.337Z" fill="url(#paint11_linear_93_1871)"/>
<path d="M804.199 1208.07V1073.6C767.965 1073.6 732.805 1080.85 699.792 1094.8C667.852 1108.22 639.133 1127.55 614.441 1152.24C589.748 1176.93 570.423 1205.65 557.003 1237.59C543.046 1270.61 535.799 1305.77 535.799 1342H670.268C670.268 1267.92 730.121 1208.07 804.199 1208.07Z" fill="#1A4AFC"/>
<path d="M804.199 1208.07V1073.6C767.965 1073.6 732.805 1080.85 699.792 1094.8C667.852 1108.22 639.133 1127.55 614.441 1152.24C589.748 1176.93 570.423 1205.65 557.003 1237.59C543.046 1270.61 535.799 1305.77 535.799 1342H670.268C670.268 1267.92 730.121 1208.07 804.199 1208.07Z" fill="url(#paint12_linear_93_1871)"/>
<path d="M535.8 1208.07V1073.6C499.566 1073.6 464.406 1080.85 431.393 1094.8C399.453 1108.22 370.734 1127.55 346.042 1152.24C321.349 1176.93 302.024 1205.65 288.604 1237.59C274.647 1270.61 267.4 1305.77 267.4 1342H401.869C401.869 1267.92 461.722 1208.07 535.8 1208.07Z" fill="white"/>
<path d="M401.869 805.2L267.4 805.2C267.4 841.434 274.647 876.594 288.604 909.607C302.024 941.547 321.349 970.266 346.042 994.959C370.734 1019.65 399.453 1038.98 431.393 1052.4C464.406 1066.35 499.566 1073.6 535.8 1073.6L535.8 939.131C461.722 939.131 401.869 879.278 401.869 805.2Z" fill="#1A4AFC"/>
<path d="M1207.07 536.8L1072.6 536.8C1072.6 573.034 1079.85 608.194 1093.8 641.208C1107.22 673.147 1126.55 701.866 1151.24 726.559C1175.93 751.252 1204.65 770.576 1236.59 783.996C1269.61 797.953 1304.77 805.2 1341 805.2L1341 670.732C1266.92 670.732 1207.07 610.878 1207.07 536.8Z" fill="url(#paint13_linear_93_1871)"/>
<path d="M938.769 -1.1613e-05L804 -5.72205e-06C804 36.315 811.263 71.554 825.251 104.641C838.701 136.652 858.069 165.435 882.817 190.183C907.565 214.931 936.348 234.299 968.359 247.749C1001.45 261.737 1036.69 269 1073 269L1073 134.231C998.756 134.231 938.769 74.244 938.769 -1.1613e-05Z" fill="#1A4AFC"/>
<path d="M133.468 -0.00010506L-1.00001 -9.91821e-05C-1.00001 36.2339 6.24679 71.3943 20.2036 104.408C33.6236 136.347 52.9484 165.066 77.6412 189.759C102.334 214.451 131.053 233.776 162.992 247.196C196.006 261.153 231.166 268.4 267.4 268.4L267.4 133.931C193.322 133.931 133.468 74.0783 133.468 -0.00010506Z" fill="url(#paint14_linear_93_1871)"/>
<path d="M670.268 268.4L535.799 268.4C535.799 304.634 543.046 339.794 557.003 372.808C570.423 404.747 589.748 433.466 614.441 458.159C639.133 482.852 667.852 502.176 699.792 515.596C732.805 529.553 767.965 536.8 804.199 536.8L804.199 402.332C730.121 402.332 670.268 342.478 670.268 268.4Z" fill="url(#paint15_linear_93_1871)"/>
<path d="M804.2 402.332L804.2 536.8C840.434 536.8 875.594 529.553 908.607 515.596C940.547 502.176 969.266 482.852 993.958 458.159C1018.65 433.466 1037.98 404.747 1051.4 372.808C1065.35 339.794 1072.6 304.634 1072.6 268.4L938.131 268.4C938.131 342.478 878.278 402.332 804.2 402.332Z" fill="url(#paint16_linear_93_1871)"/>
<path d="M535.801 939.131L535.801 1073.6C572.035 1073.6 607.196 1066.35 640.209 1052.4C672.148 1038.98 700.867 1019.65 725.56 994.959C750.253 970.266 769.578 941.547 782.998 909.607C796.954 876.594 804.201 841.434 804.201 805.2L669.733 805.2C669.733 879.278 609.88 939.131 535.801 939.131Z" fill="url(#paint17_linear_93_1871)"/>
<path d="M267.4 939.668V805.2C231.166 805.2 196.006 812.447 162.992 826.404C131.053 839.824 102.334 859.148 77.6412 883.841C52.9484 908.534 33.6236 937.253 20.2036 969.192C6.2468 1002.21 -1 1037.37 -1 1073.6H133.468C133.468 999.522 193.322 939.668 267.4 939.668Z" fill="#1A4AFC"/>
<path d="M267.4 939.668V805.2C231.166 805.2 196.006 812.447 162.992 826.404C131.053 839.824 102.334 859.148 77.6412 883.841C52.9484 908.534 33.6236 937.253 20.2036 969.192C6.2468 1002.21 -1 1037.37 -1 1073.6H133.468C133.468 999.522 193.322 939.668 267.4 939.668Z" fill="url(#paint18_linear_93_1871)"/>
<path d="M871.166 805.2L938.4 805.2C938.4 787.083 934.777 769.503 927.799 752.996C921.089 737.026 911.426 722.667 899.08 710.321C886.733 697.974 872.374 688.312 856.404 681.602C839.898 674.623 822.317 671 804.2 671L804.2 738.234C841.24 738.234 871.166 768.161 871.166 805.2Z" fill="url(#paint19_linear_93_1871)"/>
<path d="M1005.37 805.2L1072.6 805.2C1072.6 787.083 1068.98 769.503 1062 752.996C1055.29 737.026 1045.63 722.667 1033.28 710.321C1020.93 697.974 1006.57 688.312 990.603 681.602C974.097 674.623 956.517 671 938.4 671L938.4 738.234C975.439 738.234 1005.37 768.161 1005.37 805.2Z" fill="white"/>
<path d="M1139.56 134.2L1206.8 134.2C1206.8 116.083 1203.18 98.5028 1196.2 81.9962C1189.49 66.0264 1179.82 51.667 1167.48 39.3206C1155.13 26.9742 1140.77 17.3118 1124.8 10.6018C1108.3 3.6234 1090.72 -5.07415e-06 1072.6 -5.86607e-06L1072.6 67.2342C1109.64 67.2342 1139.56 97.1608 1139.56 134.2Z" fill="white"/>
<path d="M1139.56 134.2L1206.8 134.2C1206.8 116.083 1203.18 98.5028 1196.2 81.9962C1189.49 66.0264 1179.82 51.667 1167.48 39.3206C1155.13 26.9742 1140.77 17.3118 1124.8 10.6018C1108.3 3.6234 1090.72 -5.07415e-06 1072.6 -5.86607e-06L1072.6 67.2342C1109.64 67.2342 1139.56 97.1608 1139.56 134.2Z" fill="url(#paint20_linear_93_1871)"/>
<path d="M65.9665 1207.8L133.201 1207.8C133.201 1189.68 129.577 1172.1 122.599 1155.6C115.889 1139.63 106.226 1125.27 93.8801 1112.92C81.5337 1100.57 67.1743 1090.91 51.2045 1084.2C34.6979 1077.22 17.1177 1073.6 -0.999317 1073.6L-0.99932 1140.83C36.0399 1140.83 65.9665 1170.76 65.9665 1207.8Z" fill="#1A4AFC"/>
<path d="M65.9665 1207.8L133.201 1207.8C133.201 1189.68 129.577 1172.1 122.599 1155.6C115.889 1139.63 106.226 1125.27 93.8801 1112.92C81.5337 1100.57 67.1743 1090.91 51.2045 1084.2C34.6979 1077.22 17.1177 1073.6 -0.999317 1073.6L-0.99932 1140.83C36.0399 1140.83 65.9665 1170.76 65.9665 1207.8Z" fill="url(#paint21_linear_93_1871)"/>
<path d="M1273.77 134.2L1341 134.2C1341 116.083 1337.38 98.5028 1330.4 81.9962C1323.69 66.0264 1314.03 51.667 1301.68 39.3206C1289.33 26.9742 1274.97 17.3118 1259 10.6018C1242.5 3.6234 1224.92 -5.07415e-06 1206.8 -5.86607e-06L1206.8 67.2342C1243.84 67.2342 1273.77 97.1608 1273.77 134.2Z" fill="white"/>
<path d="M468.565 268.4L535.799 268.4C535.799 250.283 532.176 232.703 525.198 216.196C518.488 200.226 508.825 185.867 496.479 173.52C484.132 161.174 469.773 151.512 453.803 144.802C437.297 137.823 419.716 134.2 401.599 134.2L401.599 201.434C438.639 201.434 468.565 231.361 468.565 268.4Z" fill="#1A4AFC"/>
<path d="M736.967 268.4L804.201 268.4C804.201 250.283 800.578 232.703 793.599 216.196C786.889 200.226 777.227 185.867 764.881 173.52C752.534 161.174 738.175 151.512 722.205 144.802C705.698 137.823 688.118 134.2 670.001 134.2L670.001 201.434C707.04 201.434 736.967 231.361 736.967 268.4Z" fill="white"/>
<path d="M67.3078 402.6L134.542 402.6C134.542 384.483 130.919 366.903 123.94 350.396C117.23 334.426 107.568 320.067 95.2214 307.72C82.875 295.374 68.5156 285.712 52.5458 279.002C36.0392 272.023 18.459 268.4 0.341991 268.4L0.341988 335.634C37.3812 335.634 67.3078 365.561 67.3078 402.6Z" fill="white"/>
<path d="M602.766 134.2L670 134.2C670 116.083 666.377 98.5028 659.398 81.9962C652.688 66.0264 643.026 51.667 630.679 39.3206C618.333 26.9742 603.974 17.3118 588.004 10.6018C571.497 3.6234 553.917 -5.07415e-06 535.8 -5.86607e-06L535.8 67.2342C572.839 67.2342 602.766 97.1608 602.766 134.2Z" fill="black"/>
<path d="M602.766 134.2L670 134.2C670 116.083 666.377 98.5028 659.398 81.9962C652.688 66.0264 643.026 51.667 630.679 39.3206C618.333 26.9742 603.974 17.3118 588.004 10.6018C571.497 3.6234 553.917 -5.07415e-06 535.8 -5.86607e-06L535.8 67.2342C572.839 67.2342 602.766 97.1608 602.766 134.2Z" fill="url(#paint22_linear_93_1871)"/>
<path d="M535.8 67.2342V0C517.683 0 500.102 3.6234 483.596 10.6018C467.626 17.3118 453.267 26.9742 440.92 39.3206C428.574 51.667 418.911 66.0264 412.201 81.9962C405.223 98.5028 401.6 116.083 401.6 134.2H468.834C468.834 97.1608 498.76 67.2342 535.8 67.2342Z" fill="#1A4AFC"/>
<path d="M401.6 67.2342V0C383.483 0 365.903 3.6234 349.397 10.6018C333.427 17.3118 319.067 26.9742 306.721 39.3206C294.375 51.667 284.712 66.0264 278.002 81.9962C271.024 98.5028 267.4 116.083 267.4 134.2H334.635C334.635 97.1608 364.561 67.2342 401.6 67.2342Z" fill="#1A4AFC"/>
<path d="M1274.17 269.2L1341.4 269.2C1341.4 251.083 1337.78 233.503 1330.8 216.996C1324.09 201.026 1314.43 186.667 1302.08 174.321C1289.73 161.974 1275.37 152.312 1259.4 145.602C1242.9 138.623 1225.32 135 1207.2 135L1207.2 202.234C1244.24 202.234 1274.17 232.161 1274.17 269.2Z" fill="url(#paint23_linear_93_1871)"/>
<path d="M267.401 1275.03V1207.8C249.284 1207.8 231.703 1211.42 215.197 1218.4C199.227 1225.11 184.868 1234.77 172.521 1247.12C160.175 1259.47 150.512 1273.83 143.802 1289.8C136.824 1306.3 133.201 1323.88 133.201 1342H200.435C200.435 1304.96 230.361 1275.03 267.401 1275.03Z" fill="#1A4AFC"/>
<path d="M200.435 1073.6L133.201 1073.6C133.201 1091.72 136.824 1109.3 143.802 1125.8C150.512 1141.77 160.175 1156.13 172.521 1168.48C184.868 1180.83 199.227 1190.49 215.197 1197.2C231.703 1204.18 249.284 1207.8 267.401 1207.8L267.401 1140.57C230.361 1140.57 200.435 1110.64 200.435 1073.6Z" fill="#1A4AFC"/>
<path d="M200.435 1073.6L133.201 1073.6C133.201 1091.72 136.824 1109.3 143.802 1125.8C150.512 1141.77 160.175 1156.13 172.521 1168.48C184.868 1180.83 199.227 1190.49 215.197 1197.2C231.703 1204.18 249.284 1207.8 267.401 1207.8L267.401 1140.57C230.361 1140.57 200.435 1110.64 200.435 1073.6Z" fill="url(#paint24_linear_93_1871)"/>
<path d="M1207.2 202.234L1207.2 135C1189.08 135 1171.5 138.623 1155 145.602C1139.03 152.312 1124.67 161.974 1112.32 174.321C1099.97 186.667 1090.31 201.026 1083.6 216.996C1076.62 233.503 1073 251.083 1073 269.2L1140.23 269.2C1140.23 232.161 1170.16 202.234 1207.2 202.234Z" fill="url(#paint25_linear_93_1871)"/>
<path d="M-0.999311 1274.77L-0.999317 1342C17.1177 1342 34.6979 1338.38 51.2045 1331.4C67.1743 1324.69 81.5337 1315.03 93.8801 1302.68C106.226 1290.33 115.889 1275.97 122.599 1260C129.577 1243.5 133.201 1225.92 133.201 1207.8L65.9665 1207.8C65.9665 1244.84 36.0399 1274.77 -0.999311 1274.77Z" fill="#1A4AFC"/>
<path d="M-0.999311 1274.77L-0.999317 1342C17.1177 1342 34.6979 1338.38 51.2045 1331.4C67.1743 1324.69 81.5337 1315.03 93.8801 1302.68C106.226 1290.33 115.889 1275.97 122.599 1260C129.577 1243.5 133.201 1225.92 133.201 1207.8L65.9665 1207.8C65.9665 1244.84 36.0399 1274.77 -0.999311 1274.77Z" fill="url(#paint26_linear_93_1871)"/>
<path d="M871.166 671L938.4 671C938.4 652.883 934.777 635.303 927.799 618.796C921.089 602.826 911.426 588.467 899.08 576.121C886.733 563.774 872.374 554.112 856.404 547.402C839.898 540.423 822.317 536.8 804.2 536.8L804.2 604.034C841.24 604.034 871.166 633.961 871.166 671Z" fill="url(#paint27_linear_93_1871)"/>
<path d="M1005.63 536.8L938.4 536.8C938.4 554.917 942.024 572.497 949.002 589.004C955.712 604.974 965.375 619.333 977.721 631.679C990.067 644.026 1004.43 653.688 1020.4 660.398C1036.9 667.377 1054.48 671 1072.6 671L1072.6 603.766C1035.56 603.766 1005.63 573.839 1005.63 536.8Z" fill="white"/>
<path d="M1341 402.868V268.4C1304.77 268.4 1269.61 275.647 1236.59 289.604C1204.65 303.024 1175.93 322.348 1151.24 347.041C1126.55 371.734 1107.22 400.453 1093.8 432.392C1079.85 465.405 1072.6 500.566 1072.6 536.8H1207.07C1207.07 462.722 1266.92 402.868 1341 402.868Z" fill="#1A4AFC"/>
<path d="M7.05135 537.471C7.05137 393.314 123.914 276.452 268.07 276.452C412.227 276.452 529.089 393.314 529.089 537.471C529.089 681.628 412.227 798.49 268.07 798.49C123.913 798.49 7.05134 681.628 7.05135 537.471Z" stroke="white" stroke-width="13.42"/>
<path d="M7.05135 537.471C7.05137 393.314 123.914 276.452 268.07 276.452C412.227 276.452 529.089 393.314 529.089 537.471C529.089 681.628 412.227 798.49 268.07 798.49C123.913 798.49 7.05134 681.628 7.05135 537.471Z" stroke="url(#paint28_linear_93_1871)" stroke-width="13.42"/>
<path d="M545.194 670.329C545.194 600.289 601.973 543.51 672.013 543.51C742.053 543.51 798.832 600.289 798.832 670.329C798.832 740.369 742.053 797.148 672.013 797.148C601.973 797.148 545.194 740.369 545.194 670.329Z" stroke="white" stroke-width="13.42"/>
<path d="M545.194 670.329C545.194 600.289 601.973 543.51 672.013 543.51C742.053 543.51 798.832 600.289 798.832 670.329C798.832 740.369 742.053 797.148 672.013 797.148C601.973 797.148 545.194 740.369 545.194 670.329Z" stroke="url(#paint29_linear_93_1871)" stroke-width="13.42"/>
<path d="M610.952 267.729C610.952 160.631 697.772 73.8102 804.871 73.8102C911.97 73.8102 998.79 160.631 998.79 267.729C998.79 374.828 911.97 461.648 804.871 461.648C697.772 461.648 610.952 374.828 610.952 267.729Z" stroke="white" stroke-width="13.42"/>
<path d="M610.952 267.729C610.952 160.631 697.772 73.8102 804.871 73.8102C911.97 73.8102 998.79 160.631 998.79 267.729C998.79 374.828 911.97 461.648 804.871 461.648C697.772 461.648 610.952 374.828 610.952 267.729Z" stroke="url(#paint30_linear_93_1871)" stroke-width="13.42"/>
<path d="M1341 936.716C1117.18 936.716 935.716 1118.18 935.716 1342" stroke="url(#paint31_linear_93_1871)" stroke-width="13.42" stroke-miterlimit="10"/>
<path d="M535.8 1013.21C650.673 1013.21 743.81 920.073 743.81 805.2" stroke="url(#paint32_linear_93_1871)" stroke-width="13.42" stroke-miterlimit="10"/>
<path d="M1137.02 537.471C1137.02 425.184 1228.04 334.158 1340.33 334.158C1452.62 334.158 1543.64 425.184 1543.64 537.471C1543.64 649.758 1452.62 740.784 1340.33 740.784C1228.04 740.784 1137.02 649.758 1137.02 537.471Z" stroke="white" stroke-width="13.42"/>
<path d="M1137.02 537.471C1137.02 425.184 1228.04 334.158 1340.33 334.158C1452.62 334.158 1543.64 425.184 1543.64 537.471C1543.64 649.758 1452.62 740.784 1340.33 740.784C1228.04 740.784 1137.02 649.758 1137.02 537.471Z" stroke="url(#paint33_linear_93_1871)" stroke-width="13.42"/>
</g>
<defs>
<linearGradient id="paint0_linear_93_1871" x1="-0.999999" y1="1207.8" x2="267.4" y2="1207.8" gradientUnits="userSpaceOnUse">
<stop stop-color="#2A60F8"/>
<stop offset="1" stop-color="white"/>
</linearGradient>
<linearGradient id="paint1_linear_93_1871" x1="1341" y1="268" x2="1073" y2="537" gradientUnits="userSpaceOnUse">
<stop stop-color="#1A4AFC"/>
<stop offset="1" stop-color="white"/>
</linearGradient>
<linearGradient id="paint2_linear_93_1871" x1="535.8" y1="268.4" x2="267.3" y2="-0.099976" gradientUnits="userSpaceOnUse">
<stop stop-color="#2A60F8"/>
<stop offset="1" stop-color="white"/>
</linearGradient>
<linearGradient id="paint3_linear_93_1871" x1="805.542" y1="536.8" x2="537.142" y2="805.2" gradientUnits="userSpaceOnUse">
<stop stop-color="#1A4AFC"/>
<stop offset="1" stop-color="white"/>
</linearGradient>
<linearGradient id="paint4_linear_93_1871" x1="535.8" y1="805.2" x2="267.4" y2="1073.6" gradientUnits="userSpaceOnUse">
<stop stop-color="#1A4AFC"/>
<stop offset="1" stop-color="white"/>
</linearGradient>
<linearGradient id="paint5_linear_93_1871" x1="1341" y1="536.8" x2="1072.6" y2="805.2" gradientUnits="userSpaceOnUse">
<stop stop-color="#1A4AFC"/>
<stop offset="1" stop-color="white"/>
</linearGradient>
<linearGradient id="paint6_linear_93_1871" x1="0.341797" y1="268.4" x2="537" y2="805" gradientUnits="userSpaceOnUse">
<stop stop-color="#2A60F8"/>
<stop offset="1" stop-color="white"/>
</linearGradient>
<linearGradient id="paint7_linear_93_1871" x1="803.798" y1="268.599" x2="1073.4" y2="3.36962e-06" gradientUnits="userSpaceOnUse">
<stop stop-color="#2A60F8"/>
<stop offset="1" stop-color="white"/>
</linearGradient>
<linearGradient id="paint8_linear_93_1871" x1="1341" y1="1342" x2="804" y2="805" gradientUnits="userSpaceOnUse">
<stop stop-color="#2A60F8"/>
<stop offset="1" stop-color="white"/>
</linearGradient>
<linearGradient id="paint9_linear_93_1871" x1="1072.6" y1="805.2" x2="1072.6" y2="1342" gradientUnits="userSpaceOnUse">
<stop stop-color="#1A4AFC"/>
<stop offset="1" stop-color="#0F2C96"/>
</linearGradient>
<linearGradient id="paint10_linear_93_1871" x1="804.201" y1="1342" x2="1341" y2="805.2" gradientUnits="userSpaceOnUse">
<stop stop-color="white"/>
<stop offset="1" stop-color="#1A4AFC"/>
</linearGradient>
<linearGradient id="paint11_linear_93_1871" x1="-1.00001" y1="805.2" x2="553.246" y2="268.4" gradientUnits="userSpaceOnUse">
<stop stop-color="#1A4AFC"/>
<stop offset="1" stop-color="white"/>
</linearGradient>
<linearGradient id="paint12_linear_93_1871" x1="536" y1="1353" x2="812" y2="1067" gradientUnits="userSpaceOnUse">
<stop stop-color="#1A4AFC"/>
<stop offset="1" stop-color="white"/>
</linearGradient>
<linearGradient id="paint13_linear_93_1871" x1="1261.82" y1="536.8" x2="1261.82" y2="805.2" gradientUnits="userSpaceOnUse">
<stop stop-color="#1A4AFC"/>
<stop offset="1" stop-color="white"/>
</linearGradient>
<linearGradient id="paint14_linear_93_1871" x1="133.2" y1="-9.74188e-05" x2="133.2" y2="268.4" gradientUnits="userSpaceOnUse">
<stop stop-color="#1A4AFC"/>
<stop offset="1" stop-color="white"/>
</linearGradient>
<linearGradient id="paint15_linear_93_1871" x1="678.051" y1="536.8" x2="678.051" y2="268.4" gradientUnits="userSpaceOnUse">
<stop stop-color="#1A4AFC"/>
<stop offset="1" stop-color="white"/>
</linearGradient>
<linearGradient id="paint16_linear_93_1871" x1="1047.77" y1="435.479" x2="804.2" y2="435.479" gradientUnits="userSpaceOnUse">
<stop stop-color="#1A4AFC"/>
<stop offset="1" stop-color="white"/>
</linearGradient>
<linearGradient id="paint17_linear_93_1871" x1="536" y1="1074" x2="804" y2="805" gradientUnits="userSpaceOnUse">
<stop stop-color="#1A4AFC"/>
<stop offset="1" stop-color="white"/>
</linearGradient>
<linearGradient id="paint18_linear_93_1871" x1="-1" y1="1073.6" x2="267.4" y2="805.2" gradientUnits="userSpaceOnUse">
<stop stop-color="white"/>
<stop offset="1" stop-color="#1A4AFC"/>
</linearGradient>
<linearGradient id="paint19_linear_93_1871" x1="938.6" y1="805.101" x2="804.1" y2="671.101" gradientUnits="userSpaceOnUse">
<stop stop-color="#1A4AFC"/>
<stop offset="1" stop-color="white"/>
</linearGradient>
<linearGradient id="paint20_linear_93_1871" x1="1072.6" y1="-7.1109e-06" x2="1206.8" y2="134.2" gradientUnits="userSpaceOnUse">
<stop stop-color="white"/>
<stop offset="1" stop-color="#1A4AFC"/>
</linearGradient>
<linearGradient id="paint21_linear_93_1871" x1="82.5402" y1="1073.6" x2="82.5402" y2="1207.8" gradientUnits="userSpaceOnUse">
<stop stop-color="#1A4AFC"/>
<stop offset="1" stop-color="white"/>
</linearGradient>
<linearGradient id="paint22_linear_93_1871" x1="670.2" y1="134.101" x2="535.7" y2="0.100573" gradientUnits="userSpaceOnUse">
<stop stop-color="#1A4AFC"/>
<stop offset="1" stop-color="white"/>
</linearGradient>
<linearGradient id="paint23_linear_93_1871" x1="1207.2" y1="135" x2="1341.4" y2="269.2" gradientUnits="userSpaceOnUse">
<stop stop-color="white"/>
<stop offset="1" stop-color="#1A4AFC"/>
</linearGradient>
<linearGradient id="paint24_linear_93_1871" x1="183.861" y1="1195.39" x2="183.861" y2="1073.6" gradientUnits="userSpaceOnUse">
<stop stop-color="#1A4AFC"/>
<stop offset="1" stop-color="white"/>
</linearGradient>
<linearGradient id="paint25_linear_93_1871" x1="1073" y1="269.2" x2="1207.2" y2="135" gradientUnits="userSpaceOnUse">
<stop stop-color="white"/>
<stop offset="1" stop-color="#1A4AFC"/>
</linearGradient>
<linearGradient id="paint26_linear_93_1871" x1="120.787" y1="1291.34" x2="-0.999312" y2="1291.34" gradientUnits="userSpaceOnUse">
<stop stop-color="white"/>
<stop offset="1" stop-color="white"/>
</linearGradient>
<linearGradient id="paint27_linear_93_1871" x1="938.6" y1="670.901" x2="804.1" y2="536.901" gradientUnits="userSpaceOnUse">
<stop stop-color="#1A4AFC"/>
<stop offset="1" stop-color="white"/>
</linearGradient>
<linearGradient id="paint28_linear_93_1871" x1="535.799" y1="603.065" x2="268.07" y2="603.065" gradientUnits="userSpaceOnUse">
<stop stop-color="#1A4AFC"/>
<stop offset="1" stop-color="white"/>
</linearGradient>
<linearGradient id="paint29_linear_93_1871" x1="805.542" y1="703.044" x2="672.013" y2="703.044" gradientUnits="userSpaceOnUse">
<stop stop-color="#1A4AFC"/>
<stop offset="1" stop-color="white"/>
</linearGradient>
<linearGradient id="paint30_linear_93_1871" x1="1005.5" y1="316.883" x2="804.871" y2="316.883" gradientUnits="userSpaceOnUse">
<stop stop-color="#1A4AFC"/>
<stop offset="1" stop-color="white"/>
</linearGradient>
<linearGradient id="paint31_linear_93_1871" x1="935.716" y1="1089.71" x2="1138.36" y2="1089.71" gradientUnits="userSpaceOnUse">
<stop stop-color="#1A4AFC"/>
<stop offset="1" stop-color="white"/>
</linearGradient>
<linearGradient id="paint32_linear_93_1871" x1="743.81" y1="934.686" x2="518.354" y2="934.686" gradientUnits="userSpaceOnUse">
<stop stop-color="#1A4AFC"/>
<stop offset="1" stop-color="white"/>
</linearGradient>
<linearGradient id="paint33_linear_93_1871" x1="1550.35" y1="588.927" x2="1340.33" y2="588.927" gradientUnits="userSpaceOnUse">
<stop stop-color="#1A4AFC"/>
<stop offset="1" stop-color="white"/>
</linearGradient>
<clipPath id="clip0_93_1871">
<rect width="1341" height="1342" fill="white"/>
</clipPath>
</defs>
</svg>
