<?xml version="1.0" encoding="utf-8"?>
<!-- Generator: Adobe Illustrator 24.0.1, SVG Export Plug-In . SVG Version: 6.00 Build 0)  -->
<svg version="1.1" id="Layer_1" xmlns="http://www.w3.org/2000/svg" xmlns:xlink="http://www.w3.org/1999/xlink" x="0px" y="0px"
	 viewBox="0 0 2304.4 2778" style="enable-background:new 0 0 2304.4 2778;" xml:space="preserve">
<style type="text/css">
	.st0{fill:#1A4AFC;}
	.st1{fill:#FFFFFF;}
	.st2{fill:#E6E6E6;}
</style>
<rect x="213.1" y="488.5" class="st0" width="1878.1" height="428.9"/>
<g>
	<g>
		<g>
			<path class="st0" d="M560.6,264.9h-30.2c0-49.5-40.3-89.9-89.9-89.9v-30.2C506.7,144.9,560.6,198.7,560.6,264.9z"/>
			<path class="st0" d="M381,264.7h-30.2c0-49.5,40.2-89.7,89.7-89.7v30.2C407.7,205.3,381,231.9,381,264.7z"/>
			<path class="st0" d="M440.6,354.6v-30.2c32.8,0,59.5-26.7,59.5-59.5h30.2C530.3,314.4,490.1,354.6,440.6,354.6z"/>
			<path class="st0" d="M440.6,324.4c-32.9,0-59.7-26.8-59.7-59.7h30.2c0,16.2,13.2,29.4,29.4,29.4V324.4z"/>
			<path class="st0" d="M440.2,205.1"/>
		</g>
	</g>
	<g>
		<path d="M638.6,188.6V283h36.1v-94.4h18.1V283h17.3v17.3h-17.3l0,0h-72.3V188.6H638.6z"/>
		<path d="M833.8,188.6l-0.2,94.3h9.6l12.7-94.3h42.8v111.7h-18.4v-94.1h-9.4l-12.2,94.1h-42.8V188.6H833.8z"/>
		<path d="M736.7,188.6V283h36.1v-94.4h18.1V283h16.4v17.3h-16.4l0,0h-72.3V188.6H736.7z"/>
	</g>
</g>
<g>
	<g>
		<path d="M1709.6,210.1v-7.4h-26.8v-35.6h6.4V197h15.5v-29.9h6.4V197h4.5v13.1H1709.6z"/>
		<path d="M1727.1,197h17.6v5.7h-24v-35.6h23.5v5.7h-17.1v9.3h16.1v5.3h-16.1V197z"/>
		<path d="M1773.4,167.1h6.4v35.6h-6.4v-15.1h-16v15.1h-6.4v-35.6h6.4v14.9h16V167.1z"/>
		<path d="M1795.6,202.7v-29.9h-11v-5.7h28.3v5.7H1802v29.9H1795.6z"/>
		<path d="M1817.8,202.7v-35.6h14.2c7.3,0,12.1,5,12.1,11.8c0,6.9-4.8,11.9-12.1,11.9h-7.9v12H1817.8z M1824.2,185h7.3
			c4,0,6.3-2.4,6.3-6.2c0-3.7-2.3-6.1-6.3-6.1h-7.3V185z"/>
		<path d="M1709.6,271.2v-7.4h-26.8v-35.6h6.4v29.9h15.5v-29.9h6.4v29.9h4.5v13.1H1709.6z"/>
		<path d="M1727.1,258.1h17.6v5.7h-24v-35.6h23.5v5.7h-17.1v9.3h16.1v5.3h-16.1V258.1z"/>
		<path d="M1773.4,228.2h6.4v35.6h-6.4v-15.1h-16v15.1h-6.4v-35.6h6.4V243h16V228.2z"/>
		<path d="M1785.9,246c0-11.8,6.6-18.3,16.5-18.3c9.9,0,16.5,6.5,16.5,18.3c0,11.8-6.6,18.3-16.5,18.3
			C1792.5,264.3,1785.9,257.8,1785.9,246z M1812.5,246c0-8.3-4.2-12.6-10.1-12.6c-5.9,0-10.1,4.3-10.1,12.6
			c0,8.3,4.2,12.6,10.1,12.6C1808.4,258.6,1812.5,254.3,1812.5,246z"/>
		<path d="M1825,263.8v-35.6h16.1c6.9,0,10.7,3.8,10.7,9.9c0,3.5-1.9,6.4-4.6,7.6c2.8,1.2,5.1,4.2,5.1,8.1c0,6.1-3.8,9.9-10.7,9.9
			H1825z M1831.4,243.4h9c3.2,0,5.1-1.8,5.1-4.9c0-3-1.9-4.8-5.1-4.8h-9V243.4z M1831.4,258.2h9.5c3.2,0,5.1-1.8,5.1-4.8
			c0-3.1-1.9-4.9-5.1-4.9h-9.5V258.2z"/>
		<path d="M1858.6,263.8v-35.6h6.4v12.5h7.4c7.4,0,12.1,5,12.1,11.6c0,6.6-4.6,11.6-12.1,11.6H1858.6z M1865,258.1h6.8
			c4,0,6.3-2.4,6.3-5.9c0-3.5-2.3-5.9-6.3-5.9h-6.8V258.1z M1888.3,263.8v-35.6h6.4v35.6H1888.3z"/>
		<path d="M1898.4,263.8l11.9-18.3l-11.4-17.3h7.2l8.2,13l8.2-13h7.1l-11.4,17.3l11.9,18.3h-7.2l-8.7-13.9l-8.7,13.9H1898.4z"/>
		<path d="M1682.8,324.9v-35.6h6.4v27.1h0.3l15.3-27.1h8.3v35.6h-6.4v-27.1h-0.3l-15.3,27.1H1682.8z"/>
		<path d="M1743.1,289.3h6.4v35.6h-6.4v-15.1h-16v15.1h-6.4v-35.6h6.4v14.9h16V289.3z"/>
		<path d="M1783.9,319.2h4.5v13.1h-5.9v-7.4h-23.1v7.4h-5.9v-13.1h3.4c2.2-3.8,3-8.6,3-16.1v-13.8h24V319.2z M1777.6,319.2v-24.4
			h-11.4v8.3c0,7.4-0.8,12.4-3.2,16.1H1777.6z"/>
		<path d="M1800,319.2h17.6v5.7h-24v-35.6h23.5v5.7H1800v9.3h16.1v5.3H1800V319.2z"/>
		<path d="M1824,324.9v-35.6h6.4v16.2l13.9-16.2h7.4l-15,17.5l15.7,18.2h-7.6l-14.5-16.8v16.8H1824z"/>
		<path d="M1852.4,307.1c0-11.8,6.6-18.3,16.5-18.3c8.1,0,13.1,4.2,15.1,11h-6.6c-1.5-3.4-4.1-5.3-8.5-5.3
			c-5.9,0-10.1,4.3-10.1,12.6c0,8.3,4.2,12.6,10.1,12.6c4.4,0,7-1.9,8.5-5.3h6.6c-2,6.8-7,11-15.1,11
			C1859,325.4,1852.4,318.9,1852.4,307.1z"/>
		<path d="M1887.2,307.1c0-11.8,6.6-18.3,16.5-18.3c9.9,0,16.5,6.5,16.5,18.3c0,11.8-6.6,18.3-16.5,18.3
			C1893.8,325.4,1887.2,318.9,1887.2,307.1z M1913.8,307.1c0-8.3-4.2-12.6-10.1-12.6c-5.9,0-10.1,4.3-10.1,12.6
			c0,8.3,4.2,12.6,10.1,12.6C1909.7,319.7,1913.8,315.4,1913.8,307.1z"/>
		<path d="M1926.3,324.9v-35.6h16.1c6.9,0,10.7,3.8,10.7,9.9c0,3.5-1.9,6.4-4.6,7.6c2.8,1.2,5.1,4.2,5.1,8.1c0,6.1-3.8,9.9-10.7,9.9
			H1926.3z M1932.7,304.5h9c3.2,0,5.1-1.8,5.1-4.9c0-3-1.9-4.8-5.1-4.8h-9V304.5z M1932.7,319.3h9.5c3.2,0,5.1-1.8,5.1-4.8
			c0-3.1-1.9-4.9-5.1-4.9h-9.5V319.3z"/>
	</g>
	<g>
		<g>
			<path class="st0" d="M1622.9,264.9h-30.2c0-49.5-40.3-89.9-89.9-89.9v-30.2C1569,144.9,1622.9,198.7,1622.9,264.9z"/>
			<path class="st0" d="M1443.3,264.7h-30.2c0-49.5,40.2-89.7,89.7-89.7v30.2C1470,205.3,1443.3,231.9,1443.3,264.7z"/>
			<path class="st0" d="M1502.9,354.6v-30.2c32.8,0,59.5-26.7,59.5-59.5h30.2C1592.6,314.4,1552.4,354.6,1502.9,354.6z"/>
			<path class="st0" d="M1502.9,324.4c-32.9,0-59.7-26.8-59.7-59.7h30.2c0,16.2,13.2,29.4,29.4,29.4V324.4z"/>
			<path class="st0" d="M1502.5,205.1"/>
		</g>
	</g>
</g>
<g>
	<g>
		<g>
			<g>
				<path class="st1" d="M560.6,717.8h-30.2c0-49.5-40.3-89.9-89.9-89.9v-30.2C506.7,597.7,560.6,651.6,560.6,717.8z"/>
				<path class="st1" d="M381,717.6h-30.2c0-49.5,40.2-89.7,89.7-89.7v30.2C407.7,658.1,381,684.8,381,717.6z"/>
				<path class="st1" d="M440.6,807.5v-30.2c32.8,0,59.5-26.7,59.5-59.5h30.2C530.3,767.2,490.1,807.5,440.6,807.5z"/>
				<path class="st1" d="M440.6,777.2c-32.9,0-59.7-26.8-59.7-59.7h30.2c0,16.2,13.2,29.4,29.4,29.4V777.2z"/>
				<path class="st1" d="M440.2,657.9"/>
			</g>
		</g>
		<g>
			<path class="st1" d="M638.6,641.5v94.4h36.1v-94.4h18.1v94.4h17.3v17.3h-17.3l0,0h-72.3V641.5H638.6z"/>
			<path class="st1" d="M833.8,641.5l-0.2,94.3h9.6l12.7-94.3h42.8v111.7h-18.4V659h-9.4l-12.2,94.1h-42.8V641.5H833.8z"/>
			<path class="st1" d="M736.7,641.5v94.4h36.1v-94.4h18.1v94.4h16.4v17.3h-16.4l0,0h-72.3V641.5H736.7z"/>
		</g>
	</g>
	<g>
		<g>
			<path class="st1" d="M1709.6,662.9v-7.4h-26.8v-35.6h6.4v29.9h15.5v-29.9h6.4v29.9h4.5v13.1H1709.6z"/>
			<path class="st1" d="M1727.1,649.8h17.6v5.7h-24v-35.6h23.5v5.7h-17.1v9.3h16.1v5.3h-16.1V649.8z"/>
			<path class="st1" d="M1773.4,619.9h6.4v35.6h-6.4v-15.1h-16v15.1h-6.4v-35.6h6.4v14.9h16V619.9z"/>
			<path class="st1" d="M1795.6,655.5v-29.9h-11v-5.7h28.3v5.7H1802v29.9H1795.6z"/>
			<path class="st1" d="M1817.8,655.5v-35.6h14.2c7.3,0,12.1,5,12.1,11.8c0,6.9-4.8,11.9-12.1,11.9h-7.9v12H1817.8z M1824.2,637.8
				h7.3c4,0,6.3-2.4,6.3-6.2c0-3.7-2.3-6.1-6.3-6.1h-7.3V637.8z"/>
			<path class="st1" d="M1709.6,724v-7.4h-26.8V681h6.4v29.9h15.5V681h6.4v29.9h4.5V724H1709.6z"/>
			<path class="st1" d="M1727.1,710.9h17.6v5.7h-24V681h23.5v5.7h-17.1v9.3h16.1v5.3h-16.1V710.9z"/>
			<path class="st1" d="M1773.4,681h6.4v35.6h-6.4v-15.1h-16v15.1h-6.4V681h6.4v14.9h16V681z"/>
			<path class="st1" d="M1785.9,698.8c0-11.8,6.6-18.3,16.5-18.3c9.9,0,16.5,6.5,16.5,18.3c0,11.8-6.6,18.3-16.5,18.3
				C1792.5,717.1,1785.9,710.6,1785.9,698.8z M1812.5,698.8c0-8.3-4.2-12.6-10.1-12.6c-5.9,0-10.1,4.3-10.1,12.6
				c0,8.3,4.2,12.6,10.1,12.6C1808.4,711.4,1812.5,707.1,1812.5,698.8z"/>
			<path class="st1" d="M1825,716.6V681h16.1c6.9,0,10.7,3.8,10.7,9.9c0,3.5-1.9,6.4-4.6,7.6c2.8,1.2,5.1,4.2,5.1,8.1
				c0,6.1-3.8,9.9-10.7,9.9H1825z M1831.4,696.3h9c3.2,0,5.1-1.8,5.1-4.9c0-3-1.9-4.8-5.1-4.8h-9V696.3z M1831.4,711.1h9.5
				c3.2,0,5.1-1.8,5.1-4.8c0-3.1-1.9-4.9-5.1-4.9h-9.5V711.1z"/>
			<path class="st1" d="M1858.6,716.6V681h6.4v12.5h7.4c7.4,0,12.1,5,12.1,11.6c0,6.6-4.6,11.6-12.1,11.6H1858.6z M1865,710.9h6.8
				c4,0,6.3-2.4,6.3-5.9c0-3.5-2.3-5.9-6.3-5.9h-6.8V710.9z M1888.3,716.6V681h6.4v35.6H1888.3z"/>
			<path class="st1" d="M1898.4,716.6l11.9-18.3l-11.4-17.3h7.2l8.2,13l8.2-13h7.1l-11.4,17.3l11.9,18.3h-7.2l-8.7-13.9l-8.7,13.9
				H1898.4z"/>
			<path class="st1" d="M1682.8,777.7v-35.6h6.4v27.1h0.3l15.3-27.1h8.3v35.6h-6.4v-27.1h-0.3l-15.3,27.1H1682.8z"/>
			<path class="st1" d="M1743.1,742.1h6.4v35.6h-6.4v-15.1h-16v15.1h-6.4v-35.6h6.4V757h16V742.1z"/>
			<path class="st1" d="M1783.9,772h4.5v13.1h-5.9v-7.4h-23.1v7.4h-5.9V772h3.4c2.2-3.8,3-8.6,3-16.1v-13.8h24V772z M1777.6,772
				v-24.4h-11.4v8.3c0,7.4-0.8,12.4-3.2,16.1H1777.6z"/>
			<path class="st1" d="M1800,772h17.6v5.7h-24v-35.6h23.5v5.7H1800v9.3h16.1v5.3H1800V772z"/>
			<path class="st1" d="M1824,777.7v-35.6h6.4v16.2l13.9-16.2h7.4l-15,17.5l15.7,18.2h-7.6l-14.5-16.8v16.8H1824z"/>
			<path class="st1" d="M1852.4,759.9c0-11.8,6.6-18.3,16.5-18.3c8.1,0,13.1,4.2,15.1,11h-6.6c-1.5-3.4-4.1-5.3-8.5-5.3
				c-5.9,0-10.1,4.3-10.1,12.6c0,8.3,4.2,12.6,10.1,12.6c4.4,0,7-1.9,8.5-5.3h6.6c-2,6.8-7,11-15.1,11
				C1859,778.2,1852.4,771.7,1852.4,759.9z"/>
			<path class="st1" d="M1887.2,759.9c0-11.8,6.6-18.3,16.5-18.3c9.9,0,16.5,6.5,16.5,18.3c0,11.8-6.6,18.3-16.5,18.3
				C1893.8,778.2,1887.2,771.7,1887.2,759.9z M1913.8,759.9c0-8.3-4.2-12.6-10.1-12.6c-5.9,0-10.1,4.3-10.1,12.6
				c0,8.3,4.2,12.6,10.1,12.6C1909.7,772.5,1913.8,768.2,1913.8,759.9z"/>
			<path class="st1" d="M1926.3,777.7v-35.6h16.1c6.9,0,10.7,3.8,10.7,9.9c0,3.5-1.9,6.4-4.6,7.6c2.8,1.2,5.1,4.2,5.1,8.1
				c0,6.1-3.8,9.9-10.7,9.9H1926.3z M1932.7,757.4h9c3.2,0,5.1-1.8,5.1-4.9c0-3-1.9-4.8-5.1-4.8h-9V757.4z M1932.7,772.2h9.5
				c3.2,0,5.1-1.8,5.1-4.8c0-3.1-1.9-4.9-5.1-4.9h-9.5V772.2z"/>
		</g>
		<g>
			<g>
				<path class="st1" d="M1622.9,717.8h-30.2c0-49.5-40.3-89.9-89.9-89.9v-30.2C1569,597.7,1622.9,651.6,1622.9,717.8z"/>
				<path class="st1" d="M1443.3,717.6h-30.2c0-49.5,40.2-89.7,89.7-89.7v30.2C1470,658.1,1443.3,684.8,1443.3,717.6z"/>
				<path class="st1" d="M1502.9,807.5v-30.2c32.8,0,59.5-26.7,59.5-59.5h30.2C1592.6,767.2,1552.4,807.5,1502.9,807.5z"/>
				<path class="st1" d="M1502.9,777.2c-32.9,0-59.7-26.8-59.7-59.7h30.2c0,16.2,13.2,29.4,29.4,29.4V777.2z"/>
				<path class="st1" d="M1502.5,657.9"/>
			</g>
		</g>
	</g>
</g>
<rect x="213.1" y="917.4" class="st2" width="1878.1" height="428.9"/>
<g>
	<g>
		<g>
			<g>
				<path d="M560.6,1146.7h-30.2c0-49.5-40.3-89.9-89.9-89.9v-30.2C506.7,1026.6,560.6,1080.5,560.6,1146.7z"/>
				<path d="M381,1146.5h-30.2c0-49.5,40.2-89.7,89.7-89.7v30.2C407.7,1087,381,1113.7,381,1146.5z"/>
				<path d="M440.6,1236.4v-30.2c32.8,0,59.5-26.7,59.5-59.5h30.2C530.3,1196.2,490.1,1236.4,440.6,1236.4z"/>
				<path d="M440.6,1206.2c-32.9,0-59.7-26.8-59.7-59.7h30.2c0,16.2,13.2,29.4,29.4,29.4V1206.2z"/>
				<path d="M440.2,1086.9"/>
			</g>
		</g>
		<g>
			<path d="M638.6,1070.4v94.4h36.1v-94.4h18.1v94.4h17.3v17.3h-17.3l0,0h-72.3v-111.7H638.6z"/>
			<path d="M833.8,1070.4l-0.2,94.3h9.6l12.7-94.3h42.8v111.7h-18.4v-94.1h-9.4l-12.2,94.1h-42.8v-111.7H833.8z"/>
			<path d="M736.7,1070.4v94.4h36.1v-94.4h18.1v94.4h16.4v17.3h-16.4l0,0h-72.3v-111.7H736.7z"/>
		</g>
	</g>
	<g>
		<g>
			<path d="M1709.6,1091.8v-7.4h-26.8v-35.6h6.4v29.9h15.5v-29.9h6.4v29.9h4.5v13.1H1709.6z"/>
			<path d="M1727.1,1078.7h17.6v5.7h-24v-35.6h23.5v5.7h-17.1v9.3h16.1v5.3h-16.1V1078.7z"/>
			<path d="M1773.4,1048.8h6.4v35.6h-6.4v-15.1h-16v15.1h-6.4v-35.6h6.4v14.9h16V1048.8z"/>
			<path d="M1795.6,1084.4v-29.9h-11v-5.7h28.3v5.7H1802v29.9H1795.6z"/>
			<path d="M1817.8,1084.4v-35.6h14.2c7.3,0,12.1,5,12.1,11.8c0,6.9-4.8,11.9-12.1,11.9h-7.9v12H1817.8z M1824.2,1066.8h7.3
				c4,0,6.3-2.4,6.3-6.2c0-3.7-2.3-6.1-6.3-6.1h-7.3V1066.8z"/>
			<path d="M1709.6,1152.9v-7.4h-26.8v-35.6h6.4v29.9h15.5v-29.9h6.4v29.9h4.5v13.1H1709.6z"/>
			<path d="M1727.1,1139.8h17.6v5.7h-24v-35.6h23.5v5.7h-17.1v9.3h16.1v5.3h-16.1V1139.8z"/>
			<path d="M1773.4,1109.9h6.4v35.6h-6.4v-15.1h-16v15.1h-6.4v-35.6h6.4v14.9h16V1109.9z"/>
			<path d="M1785.9,1127.7c0-11.8,6.6-18.3,16.5-18.3c9.9,0,16.5,6.5,16.5,18.3c0,11.8-6.6,18.3-16.5,18.3
				C1792.5,1146.1,1785.9,1139.5,1785.9,1127.7z M1812.5,1127.7c0-8.3-4.2-12.6-10.1-12.6c-5.9,0-10.1,4.3-10.1,12.6
				s4.2,12.6,10.1,12.6C1808.4,1140.4,1812.5,1136,1812.5,1127.7z"/>
			<path d="M1825,1145.5v-35.6h16.1c6.9,0,10.7,3.8,10.7,9.9c0,3.5-1.9,6.4-4.6,7.6c2.8,1.2,5.1,4.2,5.1,8.1c0,6.1-3.8,9.9-10.7,9.9
				H1825z M1831.4,1125.2h9c3.2,0,5.1-1.8,5.1-4.9c0-3-1.9-4.8-5.1-4.8h-9V1125.2z M1831.4,1140h9.5c3.2,0,5.1-1.8,5.1-4.8
				c0-3.1-1.9-4.9-5.1-4.9h-9.5V1140z"/>
			<path d="M1858.6,1145.5v-35.6h6.4v12.5h7.4c7.4,0,12.1,5,12.1,11.6c0,6.6-4.6,11.6-12.1,11.6H1858.6z M1865,1139.8h6.8
				c4,0,6.3-2.4,6.3-5.9c0-3.5-2.3-5.9-6.3-5.9h-6.8V1139.8z M1888.3,1145.5v-35.6h6.4v35.6H1888.3z"/>
			<path d="M1898.4,1145.5l11.9-18.3l-11.4-17.3h7.2l8.2,13l8.2-13h7.1l-11.4,17.3l11.9,18.3h-7.2l-8.7-13.9l-8.7,13.9H1898.4z"/>
			<path d="M1682.8,1206.7V1171h6.4v27.1h0.3l15.3-27.1h8.3v35.6h-6.4v-27.1h-0.3l-15.3,27.1H1682.8z"/>
			<path d="M1743.1,1171h6.4v35.6h-6.4v-15.1h-16v15.1h-6.4V1171h6.4v14.9h16V1171z"/>
			<path d="M1783.9,1201h4.5v13.1h-5.9v-7.4h-23.1v7.4h-5.9V1201h3.4c2.2-3.8,3-8.6,3-16.1V1171h24V1201z M1777.6,1201v-24.4h-11.4
				v8.3c0,7.4-0.8,12.4-3.2,16.1H1777.6z"/>
			<path d="M1800,1201h17.6v5.7h-24V1171h23.5v5.7H1800v9.3h16.1v5.3H1800V1201z"/>
			<path d="M1824,1206.7V1171h6.4v16.2l13.9-16.2h7.4l-15,17.5l15.7,18.2h-7.6l-14.5-16.8v16.8H1824z"/>
			<path d="M1852.4,1188.8c0-11.8,6.6-18.3,16.5-18.3c8.1,0,13.1,4.2,15.1,11h-6.6c-1.5-3.4-4.1-5.3-8.5-5.3
				c-5.9,0-10.1,4.3-10.1,12.6c0,8.3,4.2,12.6,10.1,12.6c4.4,0,7-1.9,8.5-5.3h6.6c-2,6.8-7,11-15.1,11
				C1859,1207.2,1852.4,1200.7,1852.4,1188.8z"/>
			<path d="M1887.2,1188.8c0-11.8,6.6-18.3,16.5-18.3c9.9,0,16.5,6.5,16.5,18.3c0,11.8-6.6,18.3-16.5,18.3
				C1893.8,1207.2,1887.2,1200.7,1887.2,1188.8z M1913.8,1188.8c0-8.3-4.2-12.6-10.1-12.6c-5.9,0-10.1,4.3-10.1,12.6
				c0,8.3,4.2,12.6,10.1,12.6C1909.7,1201.5,1913.8,1197.1,1913.8,1188.8z"/>
			<path d="M1926.3,1206.7V1171h16.1c6.9,0,10.7,3.8,10.7,9.9c0,3.5-1.9,6.4-4.6,7.6c2.8,1.2,5.1,4.2,5.1,8.1
				c0,6.1-3.8,9.9-10.7,9.9H1926.3z M1932.7,1186.3h9c3.2,0,5.1-1.8,5.1-4.9c0-3-1.9-4.8-5.1-4.8h-9V1186.3z M1932.7,1201.1h9.5
				c3.2,0,5.1-1.8,5.1-4.8c0-3.1-1.9-4.9-5.1-4.9h-9.5V1201.1z"/>
		</g>
		<g>
			<g>
				<path d="M1622.9,1146.7h-30.2c0-49.5-40.3-89.9-89.9-89.9v-30.2C1569,1026.6,1622.9,1080.5,1622.9,1146.7z"/>
				<path d="M1443.3,1146.5h-30.2c0-49.5,40.2-89.7,89.7-89.7v30.2C1470,1087,1443.3,1113.7,1443.3,1146.5z"/>
				<path d="M1502.9,1236.4v-30.2c32.8,0,59.5-26.7,59.5-59.5h30.2C1592.6,1196.2,1552.4,1236.4,1502.9,1236.4z"/>
				<path d="M1502.9,1206.2c-32.9,0-59.7-26.8-59.7-59.7h30.2c0,16.2,13.2,29.4,29.4,29.4V1206.2z"/>
				<path d="M1502.5,1086.9"/>
			</g>
		</g>
	</g>
</g>
<rect x="213.1" y="1775.3" class="st0" width="1878.1" height="428.9"/>
<g>
	<g>
		<g>
			<g>
				<path class="st0" d="M1620.9,1575.2h-30.2c0-49.5-40.3-89.9-89.9-89.9v-30.2C1567.1,1455.2,1620.9,1509,1620.9,1575.2z"/>
				<path class="st0" d="M1441.4,1575.1h-30.2c0-49.5,40.2-89.7,89.7-89.7v30.2C1468,1515.6,1441.4,1542.3,1441.4,1575.1z"/>
				<path class="st0" d="M1501,1664.9v-30.2c32.8,0,59.5-26.7,59.5-59.5h30.2C1590.7,1624.7,1550.5,1664.9,1501,1664.9z"/>
				<path class="st0" d="M1501,1634.7c-32.9,0-59.7-26.8-59.7-59.7h30.2c0,16.2,13.2,29.4,29.4,29.4V1634.7z"/>
				<path class="st0" d="M1500.6,1515.4"/>
			</g>
		</g>
	</g>
	<g>
		<path d="M1680.9,1512.9v-35.7h14.3c7.3,0,12.1,5,12.1,11.8c0,6.9-4.8,11.9-12.1,11.9h-7.9v12H1680.9z M1687.3,1495.2h7.3
			c4,0,6.3-2.4,6.3-6.2c0-3.7-2.3-6.1-6.3-6.1h-7.3V1495.2z"/>
		<path d="M1739.3,1512.9h-7.2l-9-13.2h-4.8v13.2h-6.4v-35.7h14.7c7,0,11.7,4.5,11.7,11.3c0,6-3.7,9.9-8.3,11L1739.3,1512.9z
			 M1718.3,1482.9v11.3h7.9c3.5,0,5.7-2.2,5.7-5.7c0-3.4-2.2-5.6-5.7-5.6H1718.3z"/>
		<path d="M1743.9,1512.9v-35.7h6.4v35.7H1743.9z"/>
		<path d="M1755.7,1495c0-11.8,6.6-18.4,16.5-18.4c8.2,0,13.1,4.2,15.1,11.1h-6.6c-1.5-3.4-4.1-5.4-8.5-5.4
			c-5.9,0-10.1,4.3-10.1,12.6s4.2,12.6,10.1,12.6c4.4,0,7-1.9,8.5-5.4h6.6c-2,6.8-7,11.1-15.1,11.1
			C1762.4,1513.4,1755.7,1506.9,1755.7,1495z"/>
		<path d="M1797.5,1507.2h17.6v5.7h-24v-35.7h23.5v5.7h-17.1v9.3h16.1v5.4h-16.1V1507.2z"/>
		<path d="M1680.9,1574.1v-35.7h16.1c6.9,0,10.8,3.8,10.8,9.9c0,3.5-1.9,6.4-4.6,7.6c2.8,1.2,5.1,4.2,5.1,8.2
			c0,6.1-3.8,9.9-10.8,9.9H1680.9z M1687.3,1553.7h9c3.2,0,5.1-1.8,5.1-4.9c0-3-1.9-4.8-5.1-4.8h-9V1553.7z M1687.3,1568.5h9.5
			c3.2,0,5.1-1.8,5.1-4.8c0-3.1-1.9-4.9-5.1-4.9h-9.5V1568.5z"/>
		<path d="M1720.4,1568.4h17.6v5.7h-24v-35.7h23.5v5.7h-17.1v9.3h16.1v5.4h-16.1V1568.4z"/>
		<path d="M1743.7,1574.1v-35.7h8.5l15.2,26.9h0.3v-26.9h6.4v35.7h-8.5l-15.1-26.9h-0.3v26.9H1743.7z"/>
		<path d="M1779.4,1556.2c0-11.8,6.6-18.4,16.5-18.4c8.2,0,13.1,4.2,15.1,11.1h-6.6c-1.5-3.4-4.1-5.4-8.5-5.4
			c-5.9,0-10.1,4.3-10.1,12.6s4.2,12.6,10.1,12.6c4.4,0,7-1.9,8.5-5.4h6.6c-2,6.8-7,11.1-15.1,11.1
			C1786.1,1574.6,1779.4,1568.1,1779.4,1556.2z"/>
		<path d="M1838.3,1538.4h6.4v35.7h-6.4v-15.1h-16v15.1h-6.4v-35.7h6.4v14.9h16V1538.4z"/>
		<path d="M1851.7,1574.1v-35.7h9.5l9.3,26.6h0.3l9.3-26.6h9.4v35.7h-6.4v-27.2h-0.3l-9.6,27.2h-5.4l-9.6-27.2h-0.3v27.2H1851.7z"/>
		<path d="M1920.5,1574.1l-2.7-7.5h-15.4l-2.7,7.5h-6.4l13.1-35.7h7.6l13.1,35.7H1920.5z M1904.4,1561h11.4l-5.6-15.6h-0.3
			L1904.4,1561z"/>
		<path d="M1958,1574.1h-7.2l-9-13.2h-4.8v13.2h-6.4v-35.7h14.7c7,0,11.7,4.5,11.7,11.3c0,6-3.7,9.9-8.3,11L1958,1574.1z
			 M1937,1544.1v11.3h7.9c3.5,0,5.7-2.2,5.7-5.7c0-3.4-2.2-5.6-5.7-5.6H1937z"/>
		<path d="M1962.6,1574.1v-35.7h6.4v16.3l13.9-16.3h7.4l-15,17.5l15.8,18.2h-7.6l-14.5-16.8v16.8H1962.6z"/>
		<path d="M1679.3,1617.4c0-11.8,6.6-18.4,16.5-18.4c8.2,0,13.1,4.2,15.1,11.1h-6.6c-1.5-3.4-4.1-5.4-8.5-5.4
			c-5.9,0-10.1,4.3-10.1,12.6s4.2,12.6,10.1,12.6c4.4,0,7-1.9,8.5-5.4h6.6c-2,6.8-7,11.1-15.1,11.1
			C1685.9,1635.8,1679.3,1629.3,1679.3,1617.4z"/>
		<path d="M1722.1,1629.6h17.6v5.7h-24v-35.7h23.5v5.7h-17.1v9.3h16.1v5.4h-16.1V1629.6z"/>
		<path d="M1745.4,1635.3v-35.7h8.5l15.2,26.9h0.3v-26.9h6.4v35.7h-8.5l-15.1-26.9h-0.3v26.9H1745.4z"/>
		<path d="M1791.7,1635.3v-30h-11v-5.7h28.4v5.7h-11v30H1791.7z"/>
		<path d="M1820.5,1629.6h17.6v5.7h-24v-35.7h23.5v5.7h-17.1v9.3h16.1v5.4h-16.1V1629.6z"/>
		<path d="M1871.1,1635.3h-7.2l-9-13.2h-4.8v13.2h-6.4v-35.7h14.7c7,0,11.7,4.5,11.7,11.3c0,6-3.7,9.9-8.3,11L1871.1,1635.3z
			 M1850.1,1605.3v11.3h7.9c3.5,0,5.7-2.2,5.7-5.7c0-3.4-2.2-5.6-5.7-5.6H1850.1z"/>
	</g>
</g>
<g>
	<g>
		<g>
			<path class="st1" d="M1620.9,2000.7h-30.2c0-49.5-40.3-89.9-89.9-89.9v-30.2C1567.1,1880.6,1620.9,1934.5,1620.9,2000.7z"/>
			<path class="st1" d="M1441.4,2000.5h-30.2c0-49.5,40.2-89.7,89.7-89.7v30.2C1468,1941,1441.4,1967.7,1441.4,2000.5z"/>
			<path class="st1" d="M1501,2090.4v-30.2c32.8,0,59.5-26.7,59.5-59.5h30.2C1590.7,2050.1,1550.5,2090.4,1501,2090.4z"/>
			<path class="st1" d="M1501,2060.2c-32.9,0-59.7-26.8-59.7-59.7h30.2c0,16.2,13.2,29.4,29.4,29.4V2060.2z"/>
			<path class="st1" d="M1500.6,1940.8"/>
		</g>
	</g>
</g>
<g>
	<path class="st1" d="M1680.9,1938.3v-35.7h14.3c7.3,0,12.1,5,12.1,11.8c0,6.9-4.8,11.9-12.1,11.9h-7.9v12H1680.9z M1687.3,1920.6
		h7.3c4,0,6.3-2.4,6.3-6.2c0-3.7-2.3-6.1-6.3-6.1h-7.3V1920.6z"/>
	<path class="st1" d="M1739.3,1938.3h-7.2l-9-13.2h-4.8v13.2h-6.4v-35.7h14.7c7,0,11.7,4.5,11.7,11.3c0,6-3.7,9.9-8.3,11
		L1739.3,1938.3z M1718.3,1908.3v11.3h7.9c3.5,0,5.7-2.2,5.7-5.7c0-3.4-2.2-5.6-5.7-5.6H1718.3z"/>
	<path class="st1" d="M1743.9,1938.3v-35.7h6.4v35.7H1743.9z"/>
	<path class="st1" d="M1755.7,1920.5c0-11.8,6.6-18.4,16.5-18.4c8.2,0,13.1,4.2,15.1,11.1h-6.6c-1.5-3.4-4.1-5.4-8.5-5.4
		c-5.9,0-10.1,4.3-10.1,12.6s4.2,12.6,10.1,12.6c4.4,0,7-1.9,8.5-5.4h6.6c-2,6.8-7,11.1-15.1,11.1
		C1762.4,1938.8,1755.7,1932.3,1755.7,1920.5z"/>
	<path class="st1" d="M1797.5,1932.6h17.6v5.7h-24v-35.7h23.5v5.7h-17.1v9.3h16.1v5.4h-16.1V1932.6z"/>
	<path class="st1" d="M1680.9,1999.5v-35.7h16.1c6.9,0,10.8,3.8,10.8,9.9c0,3.5-1.9,6.4-4.6,7.6c2.8,1.2,5.1,4.2,5.1,8.2
		c0,6.1-3.8,9.9-10.8,9.9H1680.9z M1687.3,1979.1h9c3.2,0,5.1-1.8,5.1-4.9c0-3-1.9-4.8-5.1-4.8h-9V1979.1z M1687.3,1994h9.5
		c3.2,0,5.1-1.8,5.1-4.8c0-3.1-1.9-4.9-5.1-4.9h-9.5V1994z"/>
	<path class="st1" d="M1720.4,1993.8h17.6v5.7h-24v-35.7h23.5v5.7h-17.1v9.3h16.1v5.4h-16.1V1993.8z"/>
	<path class="st1" d="M1743.7,1999.5v-35.7h8.5l15.2,26.9h0.3v-26.9h6.4v35.7h-8.5l-15.1-26.9h-0.3v26.9H1743.7z"/>
	<path class="st1" d="M1779.4,1981.7c0-11.8,6.6-18.4,16.5-18.4c8.2,0,13.1,4.2,15.1,11.1h-6.6c-1.5-3.4-4.1-5.4-8.5-5.4
		c-5.9,0-10.1,4.3-10.1,12.6s4.2,12.6,10.1,12.6c4.4,0,7-1.9,8.5-5.4h6.6c-2,6.8-7,11.1-15.1,11.1
		C1786.1,2000,1779.4,1993.5,1779.4,1981.7z"/>
	<path class="st1" d="M1838.3,1963.8h6.4v35.7h-6.4v-15.1h-16v15.1h-6.4v-35.7h6.4v14.9h16V1963.8z"/>
	<path class="st1" d="M1851.7,1999.5v-35.7h9.5l9.3,26.6h0.3l9.3-26.6h9.4v35.7h-6.4v-27.2h-0.3l-9.6,27.2h-5.4l-9.6-27.2h-0.3v27.2
		H1851.7z"/>
	<path class="st1" d="M1920.5,1999.5l-2.7-7.5h-15.4l-2.7,7.5h-6.4l13.1-35.7h7.6l13.1,35.7H1920.5z M1904.4,1986.5h11.4l-5.6-15.6
		h-0.3L1904.4,1986.5z"/>
	<path class="st1" d="M1958,1999.5h-7.2l-9-13.2h-4.8v13.2h-6.4v-35.7h14.7c7,0,11.7,4.5,11.7,11.3c0,6-3.7,9.9-8.3,11L1958,1999.5z
		 M1937,1969.5v11.3h7.9c3.5,0,5.7-2.2,5.7-5.7c0-3.4-2.2-5.6-5.7-5.6H1937z"/>
	<path class="st1" d="M1962.6,1999.5v-35.7h6.4v16.3l13.9-16.3h7.4l-15,17.5l15.8,18.2h-7.6l-14.5-16.8v16.8H1962.6z"/>
	<path class="st1" d="M1679.3,2042.9c0-11.8,6.6-18.4,16.5-18.4c8.2,0,13.1,4.2,15.1,11.1h-6.6c-1.5-3.4-4.1-5.4-8.5-5.4
		c-5.9,0-10.1,4.3-10.1,12.6s4.2,12.6,10.1,12.6c4.4,0,7-1.9,8.5-5.4h6.6c-2,6.8-7,11.1-15.1,11.1
		C1685.9,2061.2,1679.3,2054.7,1679.3,2042.9z"/>
	<path class="st1" d="M1722.1,2055h17.6v5.7h-24V2025h23.5v5.7h-17.1v9.3h16.1v5.4h-16.1V2055z"/>
	<path class="st1" d="M1745.4,2060.7V2025h8.5l15.2,26.9h0.3V2025h6.4v35.7h-8.5l-15.1-26.9h-0.3v26.9H1745.4z"/>
	<path class="st1" d="M1791.7,2060.7v-30h-11v-5.7h28.4v5.7h-11v30H1791.7z"/>
	<path class="st1" d="M1820.5,2055h17.6v5.7h-24V2025h23.5v5.7h-17.1v9.3h16.1v5.4h-16.1V2055z"/>
	<path class="st1" d="M1871.1,2060.7h-7.2l-9-13.2h-4.8v13.2h-6.4V2025h14.7c7,0,11.7,4.5,11.7,11.3c0,6-3.7,9.9-8.3,11
		L1871.1,2060.7z M1850.1,2030.7v11.3h7.9c3.5,0,5.7-2.2,5.7-5.7c0-3.4-2.2-5.6-5.7-5.6H1850.1z"/>
</g>
<g>
	<g>
		<path class="st0" d="M560.6,1575.2h-30.2c0-49.5-40.3-89.9-89.9-89.9v-30.2C506.7,1455.2,560.6,1509,560.6,1575.2z"/>
		<path class="st0" d="M381,1575.1h-30.2c0-49.5,40.2-89.7,89.7-89.7v30.2C407.7,1515.6,381,1542.3,381,1575.1z"/>
		<path class="st0" d="M440.6,1664.9v-30.2c32.8,0,59.5-26.7,59.5-59.5h30.2C530.3,1624.7,490.1,1664.9,440.6,1664.9z"/>
		<path class="st0" d="M440.6,1634.7c-32.9,0-59.7-26.8-59.7-59.7h30.2c0,16.2,13.2,29.4,29.4,29.4V1634.7z"/>
		<path class="st0" d="M440.2,1515.4"/>
	</g>
</g>
<path d="M808.8,1551.4h-9.1v-47.2h-2.1h-16h-47.3h-3h-15.1v111.7h15.1v0h77.5h18.1v-64.5H808.8z M781.6,1521.5v29.9h-47.3v-29.9
	H781.6z M808.8,1598.6h-74.5v-29.9h47.3h18.1h9.1V1598.6z"/>
<path d="M615,1504.2v17.3v94.4h18.1v-47.2h51.8h3.4h14.7v-64.5H615z M633.1,1551.4v-29.9h51.8v29.9H633.1z"/>
<polygon points="918.7,1521.5 918.7,1504.2 842.6,1504.2 842.6,1504.2 840.1,1504.2 840.1,1615.9 857.4,1615.9 857.4,1615.9 
	918.7,1615.9 918.7,1598.6 857.4,1598.6 857.4,1521.5 "/>
<g>
	<g>
		<path class="st1" d="M560.6,2000.4h-30.2c0-49.5-40.3-89.9-89.9-89.9v-30.2C506.7,1880.3,560.6,1934.2,560.6,2000.4z"/>
		<path class="st1" d="M381,2000.2h-30.2c0-49.5,40.2-89.7,89.7-89.7v30.2C407.7,1940.7,381,1967.4,381,2000.2z"/>
		<path class="st1" d="M440.6,2090.1v-30.2c32.8,0,59.5-26.7,59.5-59.5h30.2C530.3,2049.9,490.1,2090.1,440.6,2090.1z"/>
		<path class="st1" d="M440.6,2059.9c-32.9,0-59.7-26.8-59.7-59.7h30.2c0,16.2,13.2,29.4,29.4,29.4V2059.9z"/>
		<path class="st1" d="M440.2,1940.6"/>
	</g>
</g>
<path class="st1" d="M808.8,1976.7h-9.1v-47.2h-18.1v0h-47.3v0h-18.1v111.7h15.1l0,0h77.5h18.1v-64.5H808.8z M781.6,1946.8v29.9
	h-47.3v-29.9H781.6z M808.8,2023.9h-74.5V1994h74.5V2023.9z"/>
<path class="st1" d="M615,1929.3v17.3v94.4h18.1v-47.2h51.8h3.4h14.7v-64.5H615z M633.1,1976.5v-29.9h51.8v29.9H633.1z"/>
<polygon class="st1" points="918.7,1946.8 918.7,1929.5 842.6,1929.5 842.6,1929.5 840.1,1929.5 840.1,2041.2 857.4,2041.2 
	857.4,2041.2 918.7,2041.2 918.7,2023.9 857.4,2023.9 857.4,1946.8 "/>
<rect x="213.1" y="2204.2" class="st2" width="1878.1" height="428.9"/>
<g>
	<g>
		<g>
			<path d="M1620.9,2429.6h-30.2c0-49.5-40.3-89.9-89.9-89.9v-30.2C1567.1,2309.5,1620.9,2363.4,1620.9,2429.6z"/>
			<path d="M1441.4,2429.4h-30.2c0-49.5,40.2-89.7,89.7-89.7v30.2C1468,2369.9,1441.4,2396.6,1441.4,2429.4z"/>
			<path d="M1501,2519.3v-30.2c32.8,0,59.5-26.7,59.5-59.5h30.2C1590.7,2479.1,1550.5,2519.3,1501,2519.3z"/>
			<path d="M1501,2489.1c-32.9,0-59.7-26.8-59.7-59.7h30.2c0,16.2,13.2,29.4,29.4,29.4V2489.1z"/>
			<path d="M1500.6,2369.8"/>
		</g>
	</g>
</g>
<g>
	<path d="M1680.9,2367.3v-35.7h14.3c7.3,0,12.1,5,12.1,11.8c0,6.9-4.8,11.9-12.1,11.9h-7.9v12H1680.9z M1687.3,2349.6h7.3
		c4,0,6.3-2.4,6.3-6.2c0-3.7-2.3-6.1-6.3-6.1h-7.3V2349.6z"/>
	<path d="M1739.3,2367.3h-7.2l-9-13.2h-4.8v13.2h-6.4v-35.7h14.7c7,0,11.7,4.5,11.7,11.3c0,6-3.7,9.9-8.3,11L1739.3,2367.3z
		 M1718.3,2337.3v11.3h7.9c3.5,0,5.7-2.2,5.7-5.7c0-3.4-2.2-5.6-5.7-5.6H1718.3z"/>
	<path d="M1743.9,2367.3v-35.7h6.4v35.7H1743.9z"/>
	<path d="M1755.7,2349.4c0-11.8,6.6-18.4,16.5-18.4c8.2,0,13.1,4.2,15.1,11.1h-6.6c-1.5-3.4-4.1-5.4-8.5-5.4
		c-5.9,0-10.1,4.3-10.1,12.6s4.2,12.6,10.1,12.6c4.4,0,7-1.9,8.5-5.4h6.6c-2,6.8-7,11.1-15.1,11.1
		C1762.4,2367.8,1755.7,2361.2,1755.7,2349.4z"/>
	<path d="M1797.5,2361.6h17.6v5.7h-24v-35.7h23.5v5.7h-17.1v9.3h16.1v5.4h-16.1V2361.6z"/>
	<path d="M1680.9,2428.5v-35.7h16.1c6.9,0,10.8,3.8,10.8,9.9c0,3.5-1.9,6.4-4.6,7.6c2.8,1.2,5.1,4.2,5.1,8.2c0,6.1-3.8,9.9-10.8,9.9
		H1680.9z M1687.3,2408.1h9c3.2,0,5.1-1.8,5.1-4.9c0-3-1.9-4.8-5.1-4.8h-9V2408.1z M1687.3,2422.9h9.5c3.2,0,5.1-1.8,5.1-4.8
		c0-3.1-1.9-4.9-5.1-4.9h-9.5V2422.9z"/>
	<path d="M1720.4,2422.8h17.6v5.7h-24v-35.7h23.5v5.7h-17.1v9.3h16.1v5.4h-16.1V2422.8z"/>
	<path d="M1743.7,2428.5v-35.7h8.5l15.2,26.9h0.3v-26.9h6.4v35.7h-8.5l-15.1-26.9h-0.3v26.9H1743.7z"/>
	<path d="M1779.4,2410.6c0-11.8,6.6-18.4,16.5-18.4c8.2,0,13.1,4.2,15.1,11.1h-6.6c-1.5-3.4-4.1-5.4-8.5-5.4
		c-5.9,0-10.1,4.3-10.1,12.6s4.2,12.6,10.1,12.6c4.4,0,7-1.9,8.5-5.4h6.6c-2,6.8-7,11.1-15.1,11.1
		C1786.1,2429,1779.4,2422.4,1779.4,2410.6z"/>
	<path d="M1838.3,2392.8h6.4v35.7h-6.4v-15.1h-16v15.1h-6.4v-35.7h6.4v14.9h16V2392.8z"/>
	<path d="M1851.7,2428.5v-35.7h9.5l9.3,26.6h0.3l9.3-26.6h9.4v35.7h-6.4v-27.2h-0.3l-9.6,27.2h-5.4l-9.6-27.2h-0.3v27.2H1851.7z"/>
	<path d="M1920.5,2428.5l-2.7-7.5h-15.4l-2.7,7.5h-6.4l13.1-35.7h7.6l13.1,35.7H1920.5z M1904.4,2415.4h11.4l-5.6-15.6h-0.3
		L1904.4,2415.4z"/>
	<path d="M1958,2428.5h-7.2l-9-13.2h-4.8v13.2h-6.4v-35.7h14.7c7,0,11.7,4.5,11.7,11.3c0,6-3.7,9.9-8.3,11L1958,2428.5z
		 M1937,2398.5v11.3h7.9c3.5,0,5.7-2.2,5.7-5.7c0-3.4-2.2-5.6-5.7-5.6H1937z"/>
	<path d="M1962.6,2428.5v-35.7h6.4v16.3l13.9-16.3h7.4l-15,17.5l15.8,18.2h-7.6l-14.5-16.8v16.8H1962.6z"/>
	<path d="M1679.3,2471.8c0-11.8,6.6-18.4,16.5-18.4c8.2,0,13.1,4.2,15.1,11.1h-6.6c-1.5-3.4-4.1-5.4-8.5-5.4
		c-5.9,0-10.1,4.3-10.1,12.6s4.2,12.6,10.1,12.6c4.4,0,7-1.9,8.5-5.4h6.6c-2,6.8-7,11.1-15.1,11.1
		C1685.9,2490.2,1679.3,2483.6,1679.3,2471.8z"/>
	<path d="M1722.1,2484h17.6v5.7h-24V2454h23.5v5.7h-17.1v9.3h16.1v5.4h-16.1V2484z"/>
	<path d="M1745.4,2489.7V2454h8.5l15.2,26.9h0.3V2454h6.4v35.7h-8.5l-15.1-26.9h-0.3v26.9H1745.4z"/>
	<path d="M1791.7,2489.7v-30h-11v-5.7h28.4v5.7h-11v30H1791.7z"/>
	<path d="M1820.5,2484h17.6v5.7h-24V2454h23.5v5.7h-17.1v9.3h16.1v5.4h-16.1V2484z"/>
	<path d="M1871.1,2489.7h-7.2l-9-13.2h-4.8v13.2h-6.4V2454h14.7c7,0,11.7,4.5,11.7,11.3c0,6-3.7,9.9-8.3,11L1871.1,2489.7z
		 M1850.1,2459.7v11.3h7.9c3.5,0,5.7-2.2,5.7-5.7c0-3.4-2.2-5.6-5.7-5.6H1850.1z"/>
</g>
<g>
	<g>
		<path d="M560.6,2429.4h-30.2c0-49.5-40.3-89.9-89.9-89.9v-30.2C506.7,2309.3,560.6,2363.1,560.6,2429.4z"/>
		<path d="M381,2429.2h-30.2c0-49.5,40.2-89.7,89.7-89.7v30.2C407.7,2369.7,381,2396.4,381,2429.2z"/>
		<path d="M440.6,2519.1v-30.2c32.8,0,59.5-26.7,59.5-59.5h30.2C530.3,2478.8,490.1,2519.1,440.6,2519.1z"/>
		<path d="M440.6,2488.8c-32.9,0-59.7-26.8-59.7-59.7h30.2c0,16.2,13.2,29.4,29.4,29.4V2488.8z"/>
		<path d="M440.2,2369.5"/>
	</g>
</g>
<path d="M808.8,2405.6h-9.1v-47.2h-18.1l0,0h-47.3l0,0h-18.1v111.7h15.1l0,0h77.5h18.1v-64.5H808.8z M781.6,2375.7v29.9h-47.3v-29.9
	H781.6z M808.8,2452.8h-74.5v-29.9h74.5V2452.8z"/>
<path d="M615,2358.2v17.3v94.4h18.1v-47.2h51.8h3.4h14.7v-64.5H615z M633.1,2405.4v-29.9h51.8v29.9H633.1z"/>
<polygon points="918.7,2375.7 918.7,2358.4 842.6,2358.4 842.6,2358.4 840.1,2358.4 840.1,2470.1 857.4,2470.1 857.4,2470.1 
	918.7,2470.1 918.7,2452.8 857.4,2452.8 857.4,2375.7 "/>
</svg>
