<?xml version="1.0" encoding="UTF-8" standalone="no"?>
<!-- Created with Inkscape (http://www.inkscape.org/) -->

<svg
   xmlns:dc="http://purl.org/dc/elements/1.1/"
   xmlns:cc="http://creativecommons.org/ns#"
   xmlns:rdf="http://www.w3.org/1999/02/22-rdf-syntax-ns#"
   xmlns:svg="http://www.w3.org/2000/svg"
   xmlns="http://www.w3.org/2000/svg"
   xmlns:sodipodi="http://sodipodi.sourceforge.net/DTD/sodipodi-0.dtd"
   xmlns:inkscape="http://www.inkscape.org/namespaces/inkscape"
   width="620mm"
   height="105mm"
   viewBox="0 0 619.99998 105"
   version="1.1"
   id="svg4546"
   sodipodi:docname="banner.svg"
   inkscape:version="0.92.4 (5da689c313, 2019-01-14)">
  <defs
     id="defs4540" />
  <sodipodi:namedview
     id="base"
     pagecolor="#ffffff"
     bordercolor="#666666"
     borderopacity="1.0"
     inkscape:pageopacity="0.0"
     inkscape:pageshadow="2"
     inkscape:zoom="0.35"
     inkscape:cx="400"
     inkscape:cy="560"
     inkscape:document-units="mm"
     inkscape:current-layer="layer1"
     showgrid="false"
     inkscape:window-width="3378"
     inkscape:window-height="1417"
     inkscape:window-x="54"
     inkscape:window-y="-8"
     inkscape:window-maximized="1"
     units="mm" />
  <metadata
     id="metadata4543">
    <rdf:RDF>
      <cc:Work
         rdf:about="">
        <dc:format>image/svg+xml</dc:format>
        <dc:type
           rdf:resource="http://purl.org/dc/dcmitype/StillImage" />
        <dc:title></dc:title>
      </cc:Work>
    </rdf:RDF>
  </metadata>
  <g
     inkscape:label="Layer 1"
     inkscape:groupmode="layer"
     id="layer1"
     transform="translate(0,-191.99999)">
    <rect
       id="rect3715"
       height="104.40837"
       width="620"
       class="st0"
       y="191.65236"
       x="1.0073475"
       style="fill:#1a4afc;stroke-width:0.28348237" />
    <g
       id="g3821"
       transform="matrix(0.39979656,0,0,0.43033075,-134.33278,-57.074538)">
      <g
         id="g3811">
        <g
           id="g3809">
          <path
             style="fill:#ffffff"
             inkscape:connector-curvature="0"
             class="st1"
             d="m 560.6,717.8 h -30.2 c 0,-49.5 -40.3,-89.9 -89.9,-89.9 v -30.2 c 66.2,0 120.1,53.9 120.1,120.1 z"
             id="path3799" />
          <path
             style="fill:#ffffff"
             inkscape:connector-curvature="0"
             class="st1"
             d="m 381,717.6 h -30.2 c 0,-49.5 40.2,-89.7 89.7,-89.7 v 30.2 c -32.8,0 -59.5,26.7 -59.5,59.5 z"
             id="path3801" />
          <path
             style="fill:#ffffff"
             inkscape:connector-curvature="0"
             class="st1"
             d="m 440.6,807.5 v -30.2 c 32.8,0 59.5,-26.7 59.5,-59.5 h 30.2 c 0,49.4 -40.2,89.7 -89.7,89.7 z"
             id="path3803" />
          <path
             style="fill:#ffffff"
             inkscape:connector-curvature="0"
             class="st1"
             d="m 440.6,777.2 c -32.9,0 -59.7,-26.8 -59.7,-59.7 h 30.2 c 0,16.2 13.2,29.4 29.4,29.4 v 30.3 z"
             id="path3805" />
          <path
             style="fill:#ffffff"
             inkscape:connector-curvature="0"
             class="st1"
             d="M 440.2,657.9"
             id="path3807" />
        </g>
      </g>
      <g
         id="g3819">
        <path
           style="fill:#ffffff"
           inkscape:connector-curvature="0"
           class="st1"
           d="m 638.6,641.5 v 94.4 h 36.1 v -94.4 h 18.1 v 94.4 h 17.3 v 17.3 h -17.3 v 0 H 620.5 V 641.5 Z"
           id="path3813" />
        <path
           style="fill:#ffffff"
           inkscape:connector-curvature="0"
           class="st1"
           d="m 833.8,641.5 -0.2,94.3 h 9.6 l 12.7,-94.3 h 42.8 V 753.2 H 880.3 V 659 h -9.4 l -12.2,94.1 H 815.9 V 641.5 Z"
           id="path3815" />
        <path
           style="fill:#ffffff"
           inkscape:connector-curvature="0"
           class="st1"
           d="m 736.7,641.5 v 94.4 h 36.1 v -94.4 h 18.1 v 94.4 h 16.4 v 17.3 h -16.4 v 0 H 718.6 V 641.5 Z"
           id="path3817" />
      </g>
    </g>
  </g>
</svg>
