<svg width="53" height="53" xmlns="http://www.w3.org/2000/svg" xmlns:xlink="http://www.w3.org/1999/xlink" xml:space="preserve" overflow="hidden"><g transform="translate(-45 -34)"><path d="M61.5625 61.0466C61.1051 61.0466 60.7344 60.6758 60.7344 60.2184L60.7344 47.0181C60.7344 46.5608 60.3636 46.19 59.9062 46.19L58.25 46.19C57.7926 46.19 57.4219 46.5608 57.4219 47.0181L57.4219 60.2184C57.4219 60.6758 57.0511 61.0466 56.5938 61.0466 56.1364 61.0466 55.7656 60.6758 55.7656 60.2184L55.7656 47.0181C55.7656 45.646 56.8779 44.5338 58.25 44.5338L59.9062 44.5338C61.2784 44.5338 62.3906 45.646 62.3906 47.0181L62.3906 60.2184C62.3906 60.6758 62.0199 61.0466 61.5625 61.0466Z" fill="#1A4AFC"/><path d="M66.5312 61.0466C66.0739 61.0466 65.7031 60.6758 65.7031 60.2184L65.7031 47.0181C65.7031 45.646 66.8154 44.5338 68.1875 44.5338L69.8438 44.5338C71.2159 44.5338 72.3281 45.646 72.3281 47.0181L72.3281 55.2994C72.3281 55.7567 71.9574 56.1275 71.5 56.1275 71.0426 56.1275 70.6719 55.7567 70.6719 55.2994L70.6719 47.0181C70.6719 46.5608 70.3011 46.19 69.8438 46.19L68.1875 46.19C67.7301 46.19 67.3594 46.5608 67.3594 47.0181L67.3594 60.2184C67.3594 60.6758 66.9886 61.0466 66.5312 61.0466Z" fill="#1A4AFC"/><path d="M53.1405 76.872C52.6831 76.872 52.3123 76.5013 52.3123 76.0439L52.3123 62.0734C52.3123 60.7013 53.4246 59.5891 54.7967 59.5891L74.9036 59.5891 79.4831 56.6989C80.6437 55.9671 82.1779 56.3148 82.9097 57.4754 83.1586 57.8703 83.2913 58.3272 83.2925 58.7941L83.2925 58.9183 86.8783 56.6741C88.0389 55.9422 89.5731 56.29 90.3048 57.4506 90.5552 57.8478 90.688 58.3079 90.6877 58.7775L90.6877 71.1994C90.6877 71.6568 90.3169 72.0275 89.8595 72.0275 89.4022 72.0275 89.0314 71.6568 89.0314 71.1994L89.0314 58.7775C89.0293 58.477 88.8644 58.2013 88.6008 58.057 88.3446 57.9091 88.0289 57.9091 87.7727 58.057L82.9198 61.0963C82.6636 61.2442 82.3479 61.2442 82.0917 61.0963 81.8313 60.9498 81.6699 60.6746 81.6694 60.3758L81.6694 58.7195C81.6686 58.2622 81.2972 57.892 80.8398 57.8928 80.6818 57.8931 80.5271 57.9385 80.3941 58.0239L75.6158 61.0383C75.4866 61.1265 75.3333 61.1728 75.1769 61.1708L54.7967 61.1708C54.3393 61.1708 53.9686 61.5415 53.9686 61.9989L53.9686 76.0439C53.9686 76.5013 53.5978 76.872 53.1405 76.872Z" fill="#1A4AFC"/><path d="M92.2031 77.0625 50.7969 77.0625C50.3395 77.0625 49.9688 76.6917 49.9688 76.2344 49.9688 75.777 50.3395 75.4062 50.7969 75.4062L92.2031 75.4062C92.6605 75.4062 93.0312 75.777 93.0312 76.2344 93.0312 76.6917 92.6605 77.0625 92.2031 77.0625Z" fill="#1A4AFC"/></g></svg>