<svg width="64" height="64" xmlns="http://www.w3.org/2000/svg" xmlns:xlink="http://www.w3.org/1999/xlink" xml:space="preserve" overflow="hidden"><g transform="translate(-813 -181)"><path d="M854.1 239 823.1 239C821.443 239 820.1 237.657 820.1 236L820.1 234C820.1 232.343 821.443 231 823.1 231L854.1 231C855.757 231 857.1 232.343 857.1 234L857.1 236C857.1 237.657 855.757 239 854.1 239ZM823.1 233C822.548 233 822.1 233.448 822.1 234L822.1 236C822.1 236.552 822.548 237 823.1 237L854.1 237C854.652 237 855.1 236.552 855.1 236L855.1 234C855.1 233.448 854.652 233 854.1 233Z" fill="#1A4AFC"/><path d="M869 216.84 868.94 216.84 866.94 216.71C864.5 216.4 862.68 214.31 862.71 211.85L862.77 207.21C862.78 206.402 863.031 205.615 863.49 204.95L865.59 201.85C865.875 201.377 866.49 201.225 866.963 201.51 867.436 201.795 867.588 202.41 867.303 202.883 867.278 202.924 867.25 202.963 867.22 203L865.11 206.1C864.879 206.447 864.751 206.853 864.74 207.27L864.68 211.91C864.661 213.339 865.706 214.559 867.12 214.76L869.06 214.88C869.596 214.912 870.012 215.363 870 215.9 869.968 216.429 869.53 216.841 869 216.84Z" fill="#1A4AFC"/><path d="M825.11 232C824.558 232 824.11 231.552 824.11 231L824.11 192C824.11 190.343 825.453 189 827.11 189L850.11 189C851.767 189 853.11 190.343 853.11 192L853.11 203.33C853.11 203.882 852.662 204.33 852.11 204.33 851.558 204.33 851.11 203.882 851.11 203.33L851.11 192C851.11 191.448 850.662 191 850.11 191L827.11 191C826.558 191 826.11 191.448 826.11 192L826.11 231C826.11 231.552 825.662 232 825.11 232Z" fill="#1A4AFC"/><path d="M852.1 232C851.548 232 851.1 231.552 851.1 231L851.1 214.58C851.1 214.028 851.548 213.58 852.1 213.58 852.652 213.58 853.1 214.028 853.1 214.58L853.1 231C853.1 231.552 852.652 232 852.1 232Z" fill="#1A4AFC"/><path d="M844.1 207 833.1 207C831.443 207 830.1 205.657 830.1 204L830.1 198C830.1 196.343 831.443 195 833.1 195L844.1 195C845.757 195 847.1 196.343 847.1 198L847.1 204C847.1 205.657 845.757 207 844.1 207ZM833.1 197C832.548 197 832.1 197.448 832.1 198L832.1 204C832.1 204.552 832.548 205 833.1 205L844.1 205C844.652 205 845.1 204.552 845.1 204L845.1 198C845.1 197.448 844.652 197 844.1 197Z" fill="#1A4AFC"/><path d="M863.5 230C859.924 230.006 857.016 227.117 857 223.54L857 214.94C857.011 212.254 854.866 210.055 852.18 210 851.628 210 851.18 209.552 851.18 209 851.18 208.448 851.628 208 852.18 208 855.971 208.055 859.011 211.149 859 214.94L859 223.54C859 226.025 861.015 228.04 863.5 228.04 865.985 228.04 868 226.025 868 223.54L868 213C868.001 205.02 864.036 197.562 857.42 193.1 856.962 192.791 856.841 192.168 857.15 191.71 857.459 191.252 858.082 191.131 858.54 191.44 865.707 196.275 870.002 204.355 870 213L870 223.54C869.984 227.117 867.076 230.006 863.5 230Z" fill="#1A4AFC"/></g></svg>