<svg width="64" height="64" xmlns="http://www.w3.org/2000/svg" xmlns:xlink="http://www.w3.org/1999/xlink" xml:space="preserve" overflow="hidden"><g transform="translate(-513 -181)"><path d="M570 239 520 239C519.448 239 519 238.552 519 238 519 237.448 519.448 237 520 237L570 237C570.552 237 571 237.448 571 238 571 238.552 570.552 239 570 239Z" fill="#1A4AFC"/><path d="M564 231.05 526 231.05C525.448 231.05 525 230.602 525 230.05 525 229.498 525.448 229.05 526 229.05L564 229.05C564.552 229.05 565 229.498 565 230.05 565 230.602 564.552 231.05 564 231.05Z" fill="#1A4AFC"/><path d="M528.53 239C527.978 239 527.53 238.552 527.53 238L527.53 230.3C527.53 229.748 527.978 229.3 528.53 229.3 529.082 229.3 529.53 229.748 529.53 230.3L529.53 238C529.53 238.552 529.082 239 528.53 239Z" fill="#1A4AFC"/><path d="M561.57 239C561.018 239 560.57 238.552 560.57 238L560.57 230.3C560.57 229.748 561.018 229.3 561.57 229.3 562.122 229.3 562.57 229.748 562.57 230.3L562.57 238C562.57 238.552 562.122 239 561.57 239Z" fill="#1A4AFC"/><path d="M545 238.42C544.448 238.42 544 237.972 544 237.42L544 188.42C544 187.868 544.448 187.42 545 187.42 545.552 187.42 546 187.868 546 188.42L546 237.42C546 237.972 545.552 238.42 545 238.42Z" fill="#1A4AFC"/><path d="M531.49 230.75C531.404 230.76 531.316 230.76 531.23 230.75 530.696 230.609 530.377 230.062 530.518 229.528 530.518 229.525 530.519 229.523 530.52 229.52L538.12 200.61C538.228 200.068 538.755 199.717 539.296 199.825 539.838 199.933 540.189 200.46 540.081 201.002 540.073 201.042 540.063 201.081 540.05 201.12L532.45 230C532.337 230.439 531.943 230.746 531.49 230.75Z" fill="#1A4AFC"/><path d="M559.06 230.75C558.592 230.765 558.177 230.453 558.06 230L550.46 201.09C550.352 200.548 550.703 200.022 551.245 199.914 551.74 199.815 552.231 200.101 552.39 200.58L560 229.49C560.145 230.023 559.831 230.572 559.298 230.718 559.296 230.719 559.293 230.719 559.29 230.72Z" fill="#1A4AFC"/><path d="M554 201 536 201C535.448 201 535 200.552 535 200L535 194C535 192.343 536.343 191 538 191L552 191C553.657 191 555 192.343 555 194L555 200C555 200.552 554.552 201 554 201ZM537 199 553 199 553 194C553 193.448 552.552 193 552 193L538 193C537.448 193 537 193.448 537 194Z" fill="#1A4AFC"/><path d="M549.83 211.87C549.278 211.873 548.827 211.428 548.824 210.876 548.823 210.607 548.929 210.349 549.12 210.16L552.43 206.86C552.789 206.441 553.421 206.392 553.84 206.751 554.26 207.11 554.308 207.741 553.949 208.161 553.916 208.2 553.879 208.236 553.84 208.27L550.54 211.57C550.353 211.761 550.097 211.869 549.83 211.87Z" fill="#1A4AFC"/><path d="M531.72 230C531.168 229.998 530.722 229.548 530.724 228.996 530.725 228.731 530.832 228.477 531.02 228.29L539.02 220.29C539.41 219.902 540.04 219.902 540.43 220.29 540.818 220.68 540.818 221.31 540.43 221.7L532.43 229.7C532.243 229.891 531.987 229.999 531.72 230Z" fill="#1A4AFC"/><path d="M558.76 230C558.498 229.999 558.246 229.895 558.06 229.71L536.7 208.34C536.308 207.951 536.305 207.318 536.694 206.926 536.696 206.924 536.698 206.922 536.7 206.92 537.09 206.532 537.72 206.532 538.11 206.92L559.47 228.28C559.868 228.663 559.88 229.296 559.496 229.694 559.304 229.894 559.037 230.005 558.76 230Z" fill="#1A4AFC"/></g></svg>