<?xml version="1.0" standalone="no"?>
<!DOCTYPE svg PUBLIC "-//W3C//DTD SVG 20010904//EN"
 "http://www.w3.org/TR/2001/REC-SVG-20010904/DTD/svg10.dtd">
<svg version="1.0" xmlns="http://www.w3.org/2000/svg"
 width="100.000000pt" height="100.000000pt" viewBox="0 0 100.000000 100.000000"
 preserveAspectRatio="xMidYMid meet">

<g transform="translate(0.000000,100.000000) scale(0.100000,-0.100000)"
fill="#1A4AFC" stroke="none">
<path d="M490 825 c0 -43 4 -75 10 -75 6 0 10 32 10 75 0 43 -4 75 -10 75 -6
0 -10 -32 -10 -75z"/>
<path d="M217 783 c-3 -5 18 -33 47 -62 30 -29 56 -49 59 -44 3 5 -18 33 -47
62 -30 29 -56 49 -59 44z"/>
<path d="M721 736 c-29 -30 -49 -56 -44 -59 5 -3 33 18 62 47 29 30 49 56 44
59 -5 3 -33 -18 -62 -47z"/>
<path d="M406 656 c-117 -71 -115 -248 4 -315 160 -90 339 89 249 249 -49 86
-168 118 -253 66z m169 -19 c47 -26 85 -88 85 -137 0 -19 -10 -53 -23 -75 -26
-47 -88 -85 -137 -85 -78 0 -160 82 -160 160 0 78 82 160 160 160 19 0 53 -10
75 -23z"/>
<path d="M100 500 c0 -6 32 -10 75 -10 43 0 75 4 75 10 0 6 -32 10 -75 10 -43
0 -75 -4 -75 -10z"/>
<path d="M750 500 c0 -6 32 -10 75 -10 43 0 75 4 75 10 0 6 -32 10 -75 10 -43
0 -75 -4 -75 -10z"/>
<path d="M261 276 c-29 -30 -49 -56 -44 -59 5 -3 33 18 62 47 29 30 49 56 44
59 -5 3 -33 -18 -62 -47z"/>
<path d="M680 312 c0 -14 96 -103 103 -95 4 4 -14 28 -40 55 -45 46 -63 57
-63 40z"/>
<path d="M490 175 c0 -43 4 -75 10 -75 6 0 10 32 10 75 0 43 -4 75 -10 75 -6
0 -10 -32 -10 -75z"/>
</g>
</svg>
