<svg width="64" height="64" xmlns="http://www.w3.org/2000/svg" xmlns:xlink="http://www.w3.org/1999/xlink" xml:space="preserve" overflow="hidden"><g transform="translate(-832 -199)"><path d="M874.57 227.72C870.152 227.716 866.573 224.132 866.576 219.714 866.58 215.295 870.164 211.717 874.583 211.72 879.001 211.723 882.58 215.308 882.576 219.726 882.575 221.847 881.731 223.881 880.23 225.38L880.23 225.38C878.728 226.88 876.692 227.722 874.57 227.72ZM874.57 213.72C871.256 213.739 868.586 216.441 868.605 219.755 868.625 223.069 871.327 225.739 874.64 225.72 876.201 225.711 877.697 225.094 878.81 224L878.81 224C881.152 221.655 881.149 217.856 878.805 215.515 877.681 214.392 876.158 213.761 874.57 213.76Z" fill="#1A4AFC"/><path d="M852 256.24C850.932 256.238 849.907 255.814 849.15 255.06L847 253 846.3 253.7C844.726 255.26 842.185 255.249 840.625 253.675 839.065 252.101 839.076 249.56 840.65 248L862.29 226.34C858.614 219.538 861.148 211.043 867.951 207.367 874.753 203.691 883.247 206.226 886.923 213.028 890.599 219.83 888.065 228.325 881.263 232.001 876.87 234.374 871.547 234.229 867.29 231.62 866.808 231.35 866.636 230.741 866.905 230.259 867.175 229.777 867.784 229.605 868.266 229.874 868.292 229.889 868.316 229.904 868.34 229.92 874.019 233.337 881.392 231.504 884.809 225.825 888.226 220.147 886.393 212.773 880.714 209.356 875.036 205.939 867.662 207.772 864.245 213.451 861.921 217.314 861.958 222.153 864.34 225.98 864.581 226.375 864.519 226.884 864.19 227.21L842.06 249.4C841.27 250.19 841.27 251.47 842.06 252.26 842.85 253.05 844.13 253.05 844.92 252.26L846.32 250.86C846.71 250.472 847.34 250.472 847.73 250.86L850.52 253.65C851.319 254.408 852.571 254.408 853.37 253.65 854.16 252.878 854.174 251.611 853.402 250.822 853.391 250.811 853.381 250.801 853.37 250.79L850.59 248C850.202 247.61 850.202 246.98 850.59 246.59L854.77 242.41C855.159 242.018 855.792 242.015 856.184 242.404 856.186 242.406 856.188 242.408 856.19 242.41L859 245.19C859.79 245.98 861.07 245.98 861.86 245.19 862.65 244.4 862.65 243.12 861.86 242.33L859.08 239.55C858.688 239.161 858.685 238.528 859.074 238.136 859.076 238.134 859.078 238.132 859.08 238.13L863.08 234.13C863.47 233.742 864.1 233.742 864.49 234.13 864.882 234.519 864.885 235.152 864.496 235.544 864.494 235.546 864.492 235.548 864.49 235.55L861.23 238.81 863.3 240.89C864.869 242.458 864.869 245.001 863.3 246.57 861.732 248.139 859.188 248.139 857.62 246.57L855.54 244.5 852.71 247.3 854.79 249.37C856.375 250.909 856.413 253.441 854.874 255.026 854.12 255.803 853.083 256.241 852 256.24Z" fill="#1A4AFC"/></g></svg>