<svg width="64" height="64" xmlns="http://www.w3.org/2000/svg" xmlns:xlink="http://www.w3.org/1999/xlink" xml:space="preserve" overflow="hidden"><g transform="translate(-1112 -181)"><path d="M1126 236 1121 236C1119.34 236 1118 234.657 1118 233L1118 228C1118 227.448 1118.45 227 1119 227 1119.55 227 1120 227.448 1120 228L1120 233C1120 233.552 1120.45 234 1121 234L1126 234C1126.55 234 1127 234.448 1127 235 1127 235.552 1126.55 236 1126 236Z" fill="#1A4AFC"/><path d="M1167 236 1162 236C1161.45 236 1161 235.552 1161 235 1161 234.448 1161.45 234 1162 234L1167 234C1167.55 234 1168 233.552 1168 233L1168 228C1168 227.448 1168.45 227 1169 227 1169.55 227 1170 227.448 1170 228L1170 233C1170 234.657 1168.66 236 1167 236Z" fill="#1A4AFC"/><path d="M1169 199C1168.45 199 1168 198.552 1168 198L1168 193C1168 192.448 1167.55 192 1167 192L1161.92 192C1161.37 192 1160.92 191.552 1160.92 191 1160.92 190.448 1161.37 190 1161.92 190L1167 190C1168.66 190 1170 191.343 1170 193L1170 198C1170 198.552 1169.55 199 1169 199Z" fill="#1A4AFC"/><path d="M1119 199C1118.45 199 1118 198.552 1118 198L1118 193C1118 191.343 1119.34 190 1121 190L1126 190C1126.55 190 1127 190.448 1127 191 1127 191.552 1126.55 192 1126 192L1121 192C1120.45 192 1120 192.448 1120 193L1120 198C1120 198.552 1119.55 199 1119 199Z" fill="#1A4AFC"/><path d="M1161 230 1127 230C1125.34 230 1124 228.657 1124 227L1124 199C1124 197.343 1125.34 196 1127 196L1161 196C1162.66 196 1164 197.343 1164 199L1164 227C1164 228.657 1162.66 230 1161 230ZM1127 198C1126.45 198 1126 198.448 1126 199L1126 227C1126 227.552 1126.45 228 1127 228L1161 228C1161.55 228 1162 227.552 1162 227L1162 199C1162 198.448 1161.55 198 1161 198Z" fill="#1A4AFC"/><path d="M1131 224C1130.45 224 1130 223.552 1130 223L1130 203C1130 202.448 1130.45 202 1131 202 1131.55 202 1132 202.448 1132 203L1132 223C1132 223.552 1131.55 224 1131 224Z" fill="#1A4AFC"/><path d="M1144.05 224C1143.5 224 1143.05 223.552 1143.05 223L1143.05 203C1143.05 202.448 1143.5 202 1144.05 202 1144.6 202 1145.05 202.448 1145.05 203L1145.05 223C1145.05 223.552 1144.6 224 1144.05 224Z" fill="#1A4AFC"/><path d="M1151 224C1150.45 224 1150 223.552 1150 223L1150 218C1150 217.448 1150.45 217 1151 217 1151.55 217 1152 217.448 1152 218L1152 223C1152 223.552 1151.55 224 1151 224Z" fill="#1A4AFC"/><path d="M1151 213C1150.45 213 1150 212.552 1150 212L1150 203C1150 202.448 1150.45 202 1151 202 1151.55 202 1152 202.448 1152 203L1152 212C1152 212.552 1151.55 213 1151 213Z" fill="#1A4AFC"/><path d="M1138 224C1137.45 224 1137 223.552 1137 223L1137 218C1137 217.448 1137.45 217 1138 217 1138.55 217 1139 217.448 1139 218L1139 223C1139 223.552 1138.55 224 1138 224Z" fill="#1A4AFC"/><path d="M1138 213C1137.45 213 1137 212.552 1137 212L1137 203C1137 202.448 1137.45 202 1138 202 1138.55 202 1139 202.448 1139 203L1139 212C1139 212.552 1138.55 213 1138 213Z" fill="#1A4AFC"/><path d="M1157 224C1156.45 224 1156 223.552 1156 223L1156 203C1156 202.448 1156.45 202 1157 202 1157.55 202 1158 202.448 1158 203L1158 223C1158 223.552 1157.55 224 1157 224Z" fill="#1A4AFC"/></g></svg>