<svg width="64" height="64" xmlns="http://www.w3.org/2000/svg" xmlns:xlink="http://www.w3.org/1999/xlink" xml:space="preserve" overflow="hidden"><g transform="translate(-64 -181)"><path d="M112.3 214 79 214C78.4477 214 78 213.552 78 213 78 212.448 78.4477 212 79 212L112.3 212C112.852 212 113.3 212.448 113.3 213 113.3 213.552 112.852 214 112.3 214Z" fill="#1A4AFC"/><path d="M101.68 224.7C101.128 224.681 100.696 224.219 100.714 223.667 100.723 223.417 100.825 223.179 101 223L111 213 101 203C100.608 202.611 100.605 201.978 100.994 201.586 100.996 201.584 100.998 201.582 101 201.58 101.39 201.192 102.02 201.192 102.41 201.58L113.09 212.29C113.482 212.679 113.485 213.312 113.096 213.704 113.094 213.706 113.092 213.708 113.09 213.71L102.39 224.41C102.201 224.597 101.946 224.702 101.68 224.7Z" fill="#1A4AFC"/><path d="M96 238C82.1929 238 71 226.807 71 213 71 199.193 82.1929 188 96 188 109.807 188 121 199.193 121 213 120.967 226.793 109.793 237.967 96 238ZM96 190C83.2975 190 73 200.298 73 213 73 225.702 83.2975 236 96 236 108.702 236 119 225.702 119 213 118.973 200.309 108.691 190.027 96 190Z" fill="#1A4AFC"/></g></svg>