<svg width="64" height="64" xmlns="http://www.w3.org/2000/svg" xmlns:xlink="http://www.w3.org/1999/xlink" xml:space="preserve" overflow="hidden"><g transform="translate(-961 -181)"><path d="M1010 239 976 239C974.343 239 973 237.657 973 236L973 211.14C973 209.473 974.333 208.113 976 208.08L1009.9 208C1011.62 208.022 1013 209.421 1013 211.14L1013 236C1013 237.657 1011.66 239 1010 239ZM1009.95 210 976 210.08C975.44 210.117 975.004 210.579 975 211.14L975 236C975 236.552 975.448 237 976 237L1010 237C1010.55 237 1011 236.552 1011 236L1011 211.14C1011.01 210.525 1010.52 210.016 1009.91 210Z" fill="#1A4AFC"/><path d="M1006 209.6C1005.45 209.6 1005 209.152 1005 208.6L1005 201C1005 194.373 999.627 189 993 189 986.373 189 981 194.373 981 201L981 208.55C981 209.102 980.552 209.55 980 209.55 979.448 209.55 979 209.102 979 208.55L979 201C979 193.268 985.268 187 993 187 1000.73 187 1007 193.268 1007 201L1007 208.55C1007.03 209.102 1006.6 209.571 1006.05 209.599 1006.03 209.6 1006.02 209.6 1006 209.6Z" fill="#1A4AFC"/><path d="M986 209.6C985.448 209.6 985 209.152 985 208.6L985 201C985 196.582 988.582 193 993 193 997.418 193 1001 196.582 1001 201L1001 203C1001 203.552 1000.55 204 1000 204 999.448 204 999 203.552 999 203L999 201C999 197.686 996.314 195 993 195 989.686 195 987 197.686 987 201L987 208.55C987.028 209.102 986.603 209.571 986.051 209.599 986.034 209.6 986.017 209.6 986 209.6Z" fill="#1A4AFC"/><path d="M993 225C990.791 225 989 223.209 989 221 989 218.791 990.791 217 993 217 995.209 217 997 218.791 997 221 997 223.209 995.209 225 993 225ZM993 218.92C991.895 218.92 991 219.815 991 220.92 991 222.025 991.895 222.92 993 222.92 994.105 222.92 995 222.025 995 220.92 994.989 219.823 994.097 218.94 993 218.94Z" fill="#1A4AFC"/><path d="M993 229C992.448 229 992 228.552 992 228L992 224.4C992 223.848 992.448 223.4 993 223.4 993.552 223.4 994 223.848 994 224.4L994 228C994 228.552 993.552 229 993 229Z" fill="#1A4AFC"/></g></svg>