<svg width="64" height="64" xmlns="http://www.w3.org/2000/svg" xmlns:xlink="http://www.w3.org/1999/xlink" xml:space="preserve" overflow="hidden"><g transform="translate(-64 -182)"><path d="M120.92 238.34 71.08 238.34C70.5277 238.34 70.08 237.892 70.08 237.34 70.08 236.788 70.5277 236.34 71.08 236.34L120.92 236.34C121.472 236.34 121.92 236.788 121.92 237.34 121.92 237.892 121.472 238.34 120.92 238.34Z" fill="#1A4AFC"/><path d="M94 225.54C93.4477 225.54 93 225.092 93 224.54L93 199.63C93 199.078 93.4477 198.63 94 198.63 94.5523 198.63 95 199.078 95 199.63L95 224.54C95 225.092 94.5523 225.54 94 225.54Z" fill="#1A4AFC"/><path d="M86 231.39C85.4477 231.39 85 230.942 85 230.39L85 199.63C85 199.078 85.4477 198.63 86 198.63 86.5523 198.63 87 199.078 87 199.63L87 230.39C87 230.942 86.5523 231.39 86 231.39Z" fill="#1A4AFC"/><path d="M75.25 200.38C74.6977 200.384 74.2469 199.939 74.243 199.387 74.2405 199.024 74.4345 198.689 74.75 198.51L89.59 189.92C90.0565 189.624 90.6743 189.763 90.97 190.229 90.9805 190.246 90.9905 190.263 91 190.28 91.2768 190.758 91.1139 191.37 90.636 191.647 90.634 191.648 90.632 191.649 90.63 191.65L75.75 200.24C75.5986 200.33 75.4261 200.378 75.25 200.38Z" fill="#1A4AFC"/><path d="M118.62 200.33 75.62 200.33C75.0677 200.33 74.62 199.882 74.62 199.33 74.62 198.778 75.0677 198.33 75.62 198.33L84.62 198.33 89.07 190.58C89.3997 190.014 90.0677 189.74 90.7 189.91L119 197.48C119.773 197.689 120.231 198.484 120.022 199.258 119.852 199.891 119.276 200.331 118.62 200.33ZM86.91 198.33 114.41 198.33 90.58 192Z" fill="#1A4AFC"/><path d="M94.92 200.15C94.5613 200.151 94.2293 199.961 94.05 199.65L89.23 191.28C88.9569 190.805 89.1175 190.198 89.59 189.92 90.0565 189.624 90.6743 189.763 90.97 190.229 90.9805 190.246 90.9905 190.263 91 190.28L95.83 198.65C96.1061 199.128 95.9423 199.74 95.464 200.016 95.3108 200.104 95.1369 200.151 94.96 200.15Z" fill="#1A4AFC"/><path d="M111 210.83C110.448 210.83 110 210.382 110 209.83L110 199.75C110 199.198 110.448 198.75 111 198.75 111.552 198.75 112 199.198 112 199.75L112 209.83C112 210.382 111.552 210.83 111 210.83Z" fill="#1A4AFC"/><path d="M78 206.34 76 206.34C74.3431 206.34 73 204.997 73 203.34L73 201.28C73 199.623 74.3431 198.28 76 198.28 76.5523 198.28 77 198.728 77 199.28 77 199.832 76.5523 200.28 76 200.28 75.4477 200.28 75 200.728 75 201.28L75 203.36C75 203.912 75.4477 204.36 76 204.36L78 204.36C78.5523 204.36 79 203.912 79 203.36L79 199.53C79 198.978 79.4477 198.53 80 198.53 80.5523 198.53 81 198.978 81 199.53L81 203.36C80.989 205.009 79.6491 206.34 78 206.34Z" fill="#1A4AFC"/><path d="M112 222.25 110 222.25C108.343 222.25 107 220.907 107 219.25L107 215.35C107 214.798 107.448 214.35 108 214.35L114 214.35C114.552 214.35 115 214.798 115 215.35L115 219.25C115 220.907 113.657 222.25 112 222.25ZM109 216.36 109 219.26C109 219.812 109.448 220.26 110 220.26L112 220.26C112.552 220.26 113 219.812 113 219.26L113 216.36Z" fill="#1A4AFC"/><path d="M108 216.11C107.828 216.109 107.66 216.065 107.51 215.98 107.034 215.705 106.869 215.098 107.14 214.62L110.14 209.42C110.319 209.109 110.651 208.919 111.01 208.92L111.01 208.92C111.365 208.922 111.692 209.113 111.87 209.42L114.87 214.61C115.166 215.076 115.029 215.694 114.563 215.99 114.096 216.287 113.479 216.149 113.182 215.683 113.167 215.659 113.153 215.635 113.14 215.61L111 211.92 108.89 215.61C108.707 215.927 108.366 216.119 108 216.11Z" fill="#1A4AFC"/><path d="M98.37 237.5C97.8177 237.5 97.37 237.052 97.37 236.5L97.37 232.39C97.37 231.838 96.9223 231.39 96.37 231.39L83.37 231.39C82.8177 231.39 82.37 231.838 82.37 232.39L82.37 236.5C82.37 237.052 81.9223 237.5 81.37 237.5 80.8177 237.5 80.37 237.052 80.37 236.5L80.37 232.39C80.37 230.733 81.7131 229.39 83.37 229.39L96.37 229.39C98.0269 229.39 99.37 230.733 99.37 232.39L99.37 236.5C99.37 237.052 98.9223 237.5 98.37 237.5Z" fill="#1A4AFC"/></g></svg>