<svg width="64" height="64" xmlns="http://www.w3.org/2000/svg" xmlns:xlink="http://www.w3.org/1999/xlink" xml:space="preserve" overflow="hidden"><g transform="translate(-64 -181)"><path d="M113.51 202.88C113.321 202.881 113.137 202.825 112.98 202.72L104.84 197.57C98.55 193.57 92.72 193.66 86.48 197.78L79 202.71C78.5278 203.003 77.9077 202.857 77.615 202.385 77.3223 201.913 77.4678 201.293 77.94 201L85.38 196.08C92.25 191.53 98.97 191.45 105.91 195.84L114.05 201C114.52 201.291 114.664 201.907 114.374 202.377 114.189 202.675 113.861 202.855 113.51 202.85Z" fill="#1A4AFC"/><path d="M71 230C70.4477 230 70 229.552 70 229L70 221C70 220.448 70.4477 220 71 220 71.5523 220 72 220.448 72 221L72 229C72 229.552 71.5523 230 71 230Z" fill="#1A4AFC"/><path d="M73 226 71.21 226C70.6577 226 70.21 225.552 70.21 225 70.21 224.448 70.6577 224 71.21 224L73 224C73.5523 224 74 224.448 74 225 74 225.552 73.5523 226 73 226Z" fill="#1A4AFC"/><path d="M121 230C120.448 230 120 229.552 120 229L120 221C120 220.448 120.448 220 121 220 121.552 220 122 220.448 122 221L122 229C122 229.552 121.552 230 121 230Z" fill="#1A4AFC"/><path d="M120.79 226 119.08 226C118.528 226 118.08 225.552 118.08 225 118.08 224.448 118.528 224 119.08 224L120.79 224C121.342 224 121.79 224.448 121.79 225 121.79 225.552 121.342 226 120.79 226Z" fill="#1A4AFC"/><path d="M85 233C81.134 233 78 229.866 78 226 78 222.134 81.134 219 85 219 88.866 219 92 222.134 92 226 92 229.866 88.866 233 85 233ZM85 220.94C82.2386 220.94 80 223.179 80 225.94 80 228.701 82.2386 230.94 85 230.94 87.7614 230.94 90 228.701 90 225.94 90 223.179 87.7614 220.94 85 220.94Z" fill="#1A4AFC"/><path d="M86.06 225.97C86.06 226.539 85.5989 227 85.03 227 84.4611 227 84 226.539 84 225.97 84 225.401 84.4611 224.94 85.03 224.94 85.5989 224.94 86.06 225.401 86.06 225.97Z" fill="#1A4AFC"/><path d="M106.94 233C103.074 233 99.94 229.866 99.94 226 99.94 222.134 103.074 219 106.94 219 110.806 219 113.94 222.134 113.94 226 113.94 229.866 110.806 233 106.94 233ZM106.94 220.94C104.179 220.94 101.94 223.179 101.94 225.94 101.94 228.701 104.179 230.94 106.94 230.94 109.701 230.94 111.94 228.701 111.94 225.94 111.94 223.179 109.701 220.94 106.94 220.94Z" fill="#1A4AFC"/><path d="M107.97 225.97C107.97 226.539 107.509 227 106.94 227 106.371 227 105.91 226.539 105.91 225.97 105.91 225.401 106.371 224.94 106.94 224.94 107.509 224.94 107.97 225.401 107.97 225.97Z" fill="#1A4AFC"/><path d="M96 229 91 229C90.4477 229 90 228.552 90 228 90 227.448 90.4477 227 91 227L96 227C96.5523 227 97 227.448 97 228 97 228.552 96.5523 229 96 229Z" fill="#1A4AFC"/><path d="M102.3 223 89.71 223C89.1577 223 88.71 222.552 88.71 222 88.71 221.448 89.1577 221 89.71 221L102.3 221C102.852 221 103.3 221.448 103.3 222 103.3 222.552 102.852 223 102.3 223Z" fill="#1A4AFC"/><path d="M82.42 221.53C82.2785 221.529 82.1388 221.499 82.01 221.44 75.9629 218.679 72.0797 212.647 72.07 206L72.07 204C72.07 202.343 73.4131 201 75.07 201L116.89 201C118.547 201 119.89 202.343 119.89 204L119.89 206C119.889 212.636 116.028 218.665 110 221.44 109.498 221.671 108.904 221.451 108.674 220.949 108.673 220.946 108.671 220.943 108.67 220.94 108.443 220.44 108.662 219.851 109.16 219.62 114.479 217.173 117.887 211.855 117.89 206L117.89 204C117.89 203.448 117.442 203 116.89 203L75.07 203C74.5177 203 74.07 203.448 74.07 204L74.07 206C74.0798 211.864 77.5057 217.185 82.84 219.62 83.3426 219.849 83.5644 220.442 83.3354 220.945 83.1722 221.303 82.8138 221.532 82.42 221.53Z" fill="#1A4AFC"/></g></svg>