<svg width="64" height="64" xmlns="http://www.w3.org/2000/svg" xmlns:xlink="http://www.w3.org/1999/xlink" xml:space="preserve" overflow="hidden"><g transform="translate(-534 -199)"><path d="M587.89 256.94 542.89 256.94C541.233 256.94 539.89 255.597 539.89 253.94L539.89 252C539.89 250.343 541.233 249 542.89 249L587.89 249C589.547 249 590.89 250.343 590.89 252L590.89 254C590.857 255.633 589.524 256.94 587.89 256.94ZM542.89 250.94C542.338 250.94 541.89 251.388 541.89 251.94L541.89 253.94C541.89 254.492 542.338 254.94 542.89 254.94L587.89 254.94C588.442 254.94 588.89 254.492 588.89 253.94L588.89 252C588.89 251.448 588.442 251 587.89 251Z" fill="#2355D7"/><path d="M567 250.6C566.448 250.6 566 250.152 566 249.6L566 235.75C565.998 235.395 565.807 235.068 565.5 234.89L556 229.37C555.691 229.191 555.309 229.191 555 229.37L545.5 234.88C545.193 235.062 545.006 235.393 545.01 235.75L545.01 249.6C545.01 250.152 544.562 250.6 544.01 250.6 543.458 250.6 543.01 250.152 543.01 249.6L543.01 235.75C543.011 234.683 543.578 233.697 544.5 233.16L554 227.64C554.928 227.104 556.072 227.104 557 227.64L566.52 233.16C567.438 233.699 568.001 234.685 568 235.75L568 249.6C568 250.152 567.552 250.6 567 250.6Z" fill="#2355D7"/><path d="M588 250.38C587.448 250.38 587 249.932 587 249.38L587 220.88C586.998 220.525 586.807 220.198 586.5 220.02L573.5 212.45C573.191 212.271 572.809 212.271 572.5 212.45L559.46 220C559.153 220.182 558.966 220.513 558.97 220.87L558.97 223.04C558.97 223.592 558.522 224.04 557.97 224.04 557.418 224.04 556.97 223.592 556.97 223.04L556.97 220.88C556.971 219.813 557.538 218.827 558.46 218.29L571.46 210.73C572.388 210.194 573.532 210.194 574.46 210.73L587.52 218.29C588.438 218.829 589.001 219.815 589 220.88L589 249.38C589 249.932 588.552 250.38 588 250.38Z" fill="#2355D7"/><path d="M579.89 245 575 245C573.343 245 572 243.657 572 242L572 224C572 222.343 573.343 221 575 221L579.91 221C581.567 221 582.91 222.343 582.91 224L582.91 242C582.91 243.657 581.567 245 579.91 245 579.903 245 579.897 245 579.89 245ZM575 223C574.448 223 574 223.448 574 224L574 242C574 242.552 574.448 243 575 243L579.91 243C580.462 243 580.91 242.552 580.91 242L580.91 224C580.91 223.448 580.462 223 579.91 223Z" fill="#2355D7"/><path d="M581 234 573.58 234C573.028 234 572.58 233.552 572.58 233 572.58 232.448 573.028 232 573.58 232L581 232C581.552 232 582 232.448 582 233 582 233.552 581.552 234 581 234Z" fill="#2355D7"/><path d="M561 250.6C560.448 250.6 560 250.152 560 249.6L560 240C559.968 239.438 559.503 238.999 558.94 239L556.06 239C555.497 238.999 555.032 239.438 555 240L555 249.6C555 250.152 554.552 250.6 554 250.6 553.448 250.6 553 250.152 553 249.6L553 240C553.033 238.333 554.393 237 556.06 237L558.94 237C560.607 237 561.967 238.333 562 240L562 249.6C562 250.152 561.552 250.6 561 250.6Z" fill="#2355D7"/></g></svg>