<svg width="64" height="64" xmlns="http://www.w3.org/2000/svg" xmlns:xlink="http://www.w3.org/1999/xlink" xml:space="preserve" overflow="hidden"><g transform="translate(-64 -181)"><path d="M103.75 231.87C102.66 231.891 101.588 231.588 100.67 231 99.3953 230.199 97.7747 230.199 96.5 231 94.6102 232.146 92.2398 232.146 90.35 231 89.0715 230.2 87.4485 230.2 86.17 231 85.2538 231.583 84.1857 231.882 83.1 231.86 82.5477 231.86 82.1 231.412 82.1 230.86 82.1 230.308 82.5477 229.86 83.1 229.86 83.8419 229.88 84.5718 229.671 85.19 229.26 87.0761 228.113 89.4439 228.113 91.33 229.26 92.6085 230.06 94.2315 230.06 95.51 229.26 97.3998 228.114 99.7702 228.114 101.66 229.26 102.277 229.673 103.008 229.883 103.75 229.86 104.492 229.88 105.222 229.671 105.84 229.26 106.757 228.679 107.825 228.38 108.91 228.4 109.462 228.4 109.91 228.848 109.91 229.4 109.91 229.952 109.462 230.4 108.91 230.4 108.168 230.382 107.439 230.591 106.82 231 105.905 231.586 104.837 231.889 103.75 231.87Z" fill="#1A4AFC"/><path d="M101 197 91 197C89.3431 197 88 195.657 88 194L88 192C88 190.343 89.3431 189 91 189L101 189C102.657 189 104 190.343 104 192L104 194C104 195.657 102.657 197 101 197ZM91 191C90.4477 191 90 191.448 90 192L90 194C90 194.552 90.4477 195 91 195L101 195C101.552 195 102 194.552 102 194L102 192C102 191.448 101.552 191 101 191Z" fill="#1A4AFC"/><path d="M115.54 238 76.46 238C74.8031 238.001 73.4591 236.659 73.4581 235.002 73.4577 234.475 73.5964 233.957 73.86 233.5L90.87 204C90.9527 203.85 90.9973 203.682 91 203.51L91 202C91 201.448 91.4477 201 92 201 92.5523 201 93 201.448 93 202L93 203.43C93.0132 203.98 92.8748 204.523 92.6 205L75.6 234.52C75.3239 234.998 75.4877 235.61 75.966 235.886 76.1192 235.975 76.2931 236.021 76.47 236.02L115.54 236.02C116.092 236.022 116.542 235.576 116.544 235.024 116.545 234.847 116.498 234.673 116.41 234.52L99.4 205C99.1391 204.547 99.0012 204.033 99 203.51L99 202C99 201.448 99.4477 201 100 201 100.552 201 101 201.448 101 202L101 203.43C101.003 203.602 101.047 203.77 101.13 203.92L118.13 233.44C118.958 234.875 118.467 236.71 117.032 237.538 116.575 237.802 116.057 237.94 115.53 237.94Z" fill="#1A4AFC"/></g></svg>