<svg width="64" height="64" xmlns="http://www.w3.org/2000/svg" xmlns:xlink="http://www.w3.org/1999/xlink" xml:space="preserve" overflow="hidden"><g transform="translate(-811 -181)"><path d="M840 239C839.92 239.01 839.84 239.01 839.76 239L836.27 238.13C833.171 237.34 831.001 234.549 831 231.35L831 229C830.998 228.692 831.138 228.401 831.38 228.21 831.623 228.021 831.941 227.954 832.24 228.03L835.73 228.9C838.819 229.688 840.985 232.463 841 235.65L841 238C841 238.552 840.552 239 840 239ZM833 230.28 833 231.35C833.014 233.618 834.554 235.593 836.75 236.16L839 236.72 839 235.65C838.986 233.382 837.446 231.407 835.25 230.84Z" fill="#1A4AFC"/><path d="M846 239C845.448 239 845 238.552 845 238L845 235.65C845.015 232.463 847.181 229.688 850.27 228.9L853.76 228C854.059 227.924 854.377 227.991 854.62 228.18 854.87 228.377 855.011 228.682 855 229L855 231.35C854.985 234.537 852.819 237.312 849.73 238.1L846.24 239C846.16 239.01 846.08 239.01 846 239ZM853 230.28 850.75 230.84C848.554 231.407 847.014 233.382 847 235.65L847 236.72 849.25 236.16C851.446 235.593 852.986 233.618 853 231.35Z" fill="#1A4AFC"/><path d="M840 228.45 839.76 228.45 836.27 227.58C833.171 226.79 831.001 223.999 831 220.8L831 218.45C830.984 217.898 831.418 217.437 831.97 217.421 832.061 217.418 832.152 217.428 832.24 217.45L835.73 218.32C838.829 219.111 840.999 221.901 841 225.1L841 227.45C841.002 227.758 840.862 228.049 840.62 228.24 840.44 228.372 840.223 228.446 840 228.45ZM833 219.73 833 220.8C832.994 223.073 834.543 225.056 836.75 225.6L839 226.17 839 225.1C839.007 222.824 837.459 220.838 835.25 220.29Z" fill="#1A4AFC"/><path d="M846 228.45C845.777 228.446 845.56 228.372 845.38 228.24 845.138 228.049 844.998 227.758 845 227.45L845 225.1C845.015 221.913 847.181 219.138 850.27 218.35L853.76 217.48C854.059 217.404 854.377 217.471 854.62 217.66 854.862 217.851 855.002 218.142 855 218.45L855 220.8C854.985 223.987 852.819 226.762 849.73 227.55L846.24 228.42ZM853 219.73 850.75 220.29C848.541 220.838 846.993 222.824 847 225.1L847 226.17 849.25 225.6C851.457 225.056 853.006 223.073 853 220.8Z" fill="#1A4AFC"/><path d="M840 217.9C839.92 217.91 839.84 217.91 839.76 217.9L836.27 217C833.169 216.231 830.994 213.445 831 210.25L831 207.9C830.984 207.348 831.418 206.887 831.97 206.871 832.061 206.868 832.152 206.878 832.24 206.9L835.73 207.77C838.838 208.54 841.016 211.338 841 214.54L841 216.9C840.999 217.204 840.859 217.491 840.62 217.68 840.444 217.821 840.226 217.899 840 217.9ZM833 209.18 833 210.25C832.997 212.522 834.545 214.503 836.75 215.05L839 215.61 839 214.54C839.003 212.268 837.455 210.287 835.25 209.74Z" fill="#1A4AFC"/><path d="M846 217.9C845.774 217.899 845.556 217.821 845.38 217.68 845.141 217.491 845.001 217.204 845 216.9L845 214.54C844.998 211.349 847.173 208.568 850.27 207.8L853.76 206.93C854.059 206.854 854.377 206.921 854.62 207.11 854.862 207.301 855.002 207.592 855 207.9L855 210.25C855.006 213.445 852.831 216.231 849.73 217L846.24 217.88C846.161 217.896 846.081 217.903 846 217.9ZM853 209.18 850.75 209.74C848.545 210.287 846.997 212.268 847 214.54L847 215.61 849.25 215.05C851.455 214.503 853.003 212.522 853 210.25Z" fill="#1A4AFC"/><path d="M843 208.9C842.738 208.899 842.486 208.795 842.3 208.61L841.43 207.75C838.188 204.492 838.188 199.228 841.43 195.97L842.3 195.1C842.69 194.712 843.32 194.712 843.71 195.1L844.57 195.97C847.817 199.225 847.817 204.495 844.57 207.75L843.71 208.61C843.521 208.797 843.266 208.902 843 208.9ZM843 197.23 842.85 197.38C840.365 199.839 840.343 203.847 842.802 206.332 842.818 206.348 842.834 206.364 842.85 206.38L843 206.54 843.16 206.38C845.631 203.908 845.631 199.902 843.16 197.43Z" fill="#1A4AFC"/><path d="M843 192.84C842.448 192.84 842 192.392 842 191.84L842 188C842 187.448 842.448 187 843 187 843.552 187 844 187.448 844 188L844 191.84C844 192.392 843.552 192.84 843 192.84Z" fill="#1A4AFC"/><path d="M854 204.86C853.448 204.86 853 204.412 853 203.86L853 199.86C853 199.308 853.448 198.86 854 198.86 854.552 198.86 855 199.308 855 199.86L855 203.86C855 204.412 854.552 204.86 854 204.86Z" fill="#1A4AFC"/><path d="M832 204.86C831.448 204.86 831 204.412 831 203.86L831 199.86C831 199.308 831.448 198.86 832 198.86 832.552 198.86 833 199.308 833 199.86L833 203.86C833 204.412 832.552 204.86 832 204.86Z" fill="#1A4AFC"/></g></svg>