<svg width="64" height="64" xmlns="http://www.w3.org/2000/svg" xmlns:xlink="http://www.w3.org/1999/xlink" xml:space="preserve" overflow="hidden"><g transform="translate(-64 -181)"><path d="M113 239 79 239C77.3431 239 76 237.657 76 236L76 190C76 188.343 77.3431 187 79 187L103 187C103.266 186.998 103.521 187.103 103.71 187.29L115.71 199.29C115.897 199.479 116.001 199.734 116 200L116 236C116 237.657 114.657 239 113 239ZM79 189C78.4477 189 78 189.448 78 190L78 236C78 236.552 78.4477 237 79 237L113 237C113.552 237 114 236.552 114 236L114 200.41 102.59 189Z" fill="#1A4AFC"/><path d="M107 208 92 208C91.4477 208 91 207.552 91 207 91 206.448 91.4477 206 92 206L107 206C107.552 206 108 206.448 108 207 108 207.552 107.552 208 107 208Z" fill="#1A4AFC"/><path d="M107 214 92 214C91.4477 214 91 213.552 91 213 91 212.448 91.4477 212 92 212L107 212C107.552 212 108 212.448 108 213 108 213.552 107.552 214 107 214Z" fill="#1A4AFC"/><path d="M107 220 92 220C91.4477 220 91 219.552 91 219 91 218.448 91.4477 218 92 218L107 218C107.552 218 108 218.448 108 219 108 219.552 107.552 220 107 220Z" fill="#1A4AFC"/><path d="M102 226 92 226C91.4477 226 91 225.552 91 225 91 224.448 91.4477 224 92 224L102 224C102.552 224 103 224.448 103 225 103 225.552 102.552 226 102 226Z" fill="#1A4AFC"/><path d="M114.58 201 105 201C103.343 201 102 199.657 102 198L102 188.41C102 187.858 102.448 187.41 103 187.41 103.552 187.41 104 187.858 104 188.41L104 198C104 198.552 104.448 199 105 199L114.58 199C115.132 199 115.58 199.448 115.58 200 115.58 200.552 115.132 201 114.58 201Z" fill="#1A4AFC"/><path d="M87 207C87 207.552 86.5523 208 86 208 85.4477 208 85 207.552 85 207 85 206.448 85.4477 206 86 206 86.5523 206 87 206.448 87 207Z" fill="#1A4AFC"/><path d="M87 213.03C87 213.582 86.5523 214.03 86 214.03 85.4477 214.03 85 213.582 85 213.03 85 212.478 85.4477 212.03 86 212.03 86.5523 212.03 87 212.478 87 213.03Z" fill="#1A4AFC"/><path d="M87 219C87 219.552 86.5523 220 86 220 85.4477 220 85 219.552 85 219 85 218.448 85.4477 218 86 218 86.5523 218 87 218.448 87 219Z" fill="#1A4AFC"/><path d="M87 225C87 225.552 86.5523 226 86 226 85.4477 226 85 225.552 85 225 85 224.448 85.4477 224 86 224 86.5523 224 87 224.448 87 225Z" fill="#1A4AFC"/></g></svg>