<svg width="64" height="64" xmlns="http://www.w3.org/2000/svg" xmlns:xlink="http://www.w3.org/1999/xlink" xml:space="preserve" overflow="hidden"><g transform="translate(-214 -181)"><path d="M257.4 222.17 248.11 222.17C247.755 222.168 247.428 221.978 247.25 221.67L242.6 213.62C242.421 213.311 242.421 212.929 242.6 212.62L247.25 204.62C247.428 204.312 247.755 204.122 248.11 204.12L257.4 204.12C257.755 204.122 258.082 204.312 258.26 204.62L262.91 212.62C263.089 212.929 263.089 213.311 262.91 213.62L258.26 221.67C258.082 221.978 257.755 222.168 257.4 222.17ZM248.69 220.17 256.82 220.17 260.89 213.12 256.82 206.12 248.69 206.12 244.62 213.12Z" fill="#1A4AFC"/><path d="M248.14 206.13C247.781 206.131 247.449 205.941 247.27 205.63L242.63 197.63C242.334 197.164 242.471 196.546 242.937 196.25 243.404 195.953 244.021 196.091 244.318 196.557 244.333 196.581 244.347 196.605 244.36 196.63L249.01 204.63C249.286 205.108 249.122 205.72 248.644 205.996 248.491 206.085 248.317 206.131 248.14 206.13Z" fill="#1A4AFC"/><path d="M243.5 214.17 234.21 214.17C233.851 214.171 233.519 213.981 233.34 213.67L228.7 205.67C228.444 205.181 228.633 204.576 229.123 204.32 229.583 204.079 230.151 204.232 230.43 204.67L234.79 212.21 243.5 212.21C244.052 212.21 244.5 212.658 244.5 213.21 244.5 213.762 244.052 214.21 243.5 214.21Z" fill="#1A4AFC"/><path d="M234.23 201.17C232.021 201.17 230.23 199.379 230.23 197.17 230.23 194.961 232.021 193.17 234.23 193.17 236.439 193.17 238.23 194.961 238.23 197.17 238.23 199.379 236.439 201.17 234.23 201.17ZM234.23 195.17C233.125 195.17 232.23 196.065 232.23 197.17 232.23 198.275 233.125 199.17 234.23 199.17 235.335 199.17 236.23 198.275 236.23 197.17 236.23 196.065 235.335 195.17 234.23 195.17Z" fill="#1A4AFC"/><path d="M257.67 206C257.495 206.001 257.322 205.956 257.17 205.87 256.69 205.596 256.523 204.986 256.797 204.506 256.798 204.504 256.799 204.502 256.8 204.5L260.1 198.79C260.378 198.318 260.985 198.157 261.46 198.43 261.936 198.705 262.101 199.312 261.83 199.79L258.53 205.5C258.352 205.807 258.025 205.998 257.67 206Z" fill="#1A4AFC"/><path d="M265.75 195C263.541 195 261.75 193.209 261.75 191 261.75 188.791 263.541 187 265.75 187 267.959 187 269.75 188.791 269.75 191 269.75 193.209 267.959 195 265.75 195ZM265.75 189C264.645 189 263.75 189.895 263.75 191 263.75 192.105 264.645 193 265.75 193 266.855 193 267.75 192.105 267.75 191 267.75 189.895 266.855 189 265.75 189Z" fill="#1A4AFC"/><path d="M230.75 219.87C230.575 219.871 230.402 219.826 230.25 219.74 229.77 219.466 229.603 218.856 229.877 218.376 229.878 218.374 229.879 218.372 229.88 218.37L233.18 212.67C233.455 212.194 234.062 212.029 234.54 212.3 235.02 212.574 235.187 213.184 234.913 213.664 234.912 213.666 234.911 213.668 234.91 213.67L231.61 219.37C231.432 219.678 231.105 219.868 230.75 219.87Z" fill="#1A4AFC"/><path d="M226 231.21C223.791 231.21 222 229.419 222 227.21 222 225.001 223.791 223.21 226 223.21 228.209 223.21 230 225.001 230 227.21 230 229.419 228.209 231.21 226 231.21ZM226 225.21C224.895 225.21 224 226.105 224 227.21 224 228.315 224.895 229.21 226 229.21 227.105 229.21 228 228.315 228 227.21 228 226.105 227.105 225.21 226 225.21Z" fill="#1A4AFC"/><path d="M244.66 227.67C244.484 227.668 244.311 227.62 244.16 227.53 243.688 227.252 243.527 226.645 243.8 226.17L247.09 220.46C247.346 219.971 247.95 219.781 248.44 220.037 248.929 220.293 249.118 220.898 248.862 221.387 248.849 221.412 248.835 221.436 248.82 221.46L245.53 227.17C245.351 227.481 245.019 227.671 244.66 227.67Z" fill="#1A4AFC"/><path d="M239.88 239C237.671 239 235.88 237.209 235.88 235 235.88 232.791 237.671 231 239.88 231 242.089 231 243.88 232.791 243.88 235 243.88 237.209 242.089 239 239.88 239ZM239.88 233C238.775 233 237.88 233.895 237.88 235 237.88 236.105 238.775 237 239.88 237 240.985 237 241.88 236.105 241.88 235 241.88 233.895 240.985 233 239.88 233Z" fill="#1A4AFC"/><path d="M260.59 227.67C260.231 227.671 259.899 227.481 259.72 227.17L256.43 221.46C256.134 220.994 256.271 220.376 256.737 220.08 257.203 219.783 257.822 219.921 258.118 220.387 258.133 220.411 258.147 220.435 258.16 220.46L261.45 226.17C261.723 226.645 261.562 227.252 261.09 227.53 260.939 227.62 260.766 227.668 260.59 227.67Z" fill="#1A4AFC"/><path d="M265.38 239C263.171 239 261.38 237.209 261.38 235 261.38 232.791 263.171 231 265.38 231 267.589 231 269.38 232.791 269.38 235 269.38 237.209 267.589 239 265.38 239ZM265.38 233C264.275 233 263.38 233.895 263.38 235 263.38 236.105 264.275 237 265.38 237 266.485 237 267.38 236.105 267.38 235 267.38 233.895 266.485 233 265.38 233Z" fill="#1A4AFC"/></g></svg>