<svg width="64" height="64" xmlns="http://www.w3.org/2000/svg" xmlns:xlink="http://www.w3.org/1999/xlink" xml:space="preserve" overflow="hidden"><g transform="translate(-834 -199)"><path d="M865.34 255.29C864.788 255.29 864.34 254.842 864.34 254.29 864.34 253.738 864.788 253.29 865.34 253.29 876.4 253.29 882.5 247.89 882.5 238.09 882.5 225.33 865.38 208.59 865.21 208.43 864.844 208.016 864.883 207.384 865.297 207.018 865.667 206.691 866.221 206.684 866.6 207 867.33 207.71 884.5 224.5 884.5 238.1 884.5 249 877.51 255.29 865.34 255.29Z" fill="#2355D7"/><path d="M865.34 255.29C858.17 255.29 847.5 251.29 847.5 240.16 847.5 233.16 852.07 228.16 856.5 223.32 860.93 218.48 865 214 864.91 207.72 864.91 207.168 865.358 206.72 865.91 206.72L865.91 206.72C866.462 206.72 866.91 207.168 866.91 207.72 867.01 214.81 862.41 219.84 857.96 224.72 853.51 229.6 849.5 233.92 849.5 240.16 849.5 244.71 852.81 253.29 865.34 253.29 865.892 253.29 866.34 253.738 866.34 254.29 866.34 254.842 865.892 255.29 865.34 255.29Z" fill="#2355D7"/><path d="M866.05 255.29C859.54 255.29 855.81 251.98 855.81 246.21 855.81 239.21 865.36 229.79 865.81 229.39 866.205 229.001 866.841 229.005 867.23 229.4 867.619 229.795 867.615 230.431 867.22 230.82 867.12 230.91 857.86 240.08 857.86 246.21 857.86 250.91 860.63 253.29 866.1 253.29 866.652 253.29 867.1 253.738 867.1 254.29 867.1 254.842 866.652 255.29 866.1 255.29Z" fill="#2355D7"/><path d="M866.05 255.29C865.498 255.29 865.05 254.842 865.05 254.29 865.05 253.738 865.498 253.29 866.05 253.29 868.5 253.29 874.19 252.7 874.19 247.29 874.19 244.35 872.19 241.94 870.05 239.39 867.77 236.66 865.41 233.83 865.46 230.13 865.46 229.578 865.908 229.13 866.46 229.13L866.46 229.13C867.012 229.13 867.46 229.578 867.46 230.13 867.46 233.13 869.46 235.51 871.59 238.13 873.72 240.75 876.19 243.65 876.19 247.31 876.19 252.28 872.4 255.29 866.05 255.29Z" fill="#2355D7"/><path d="M865.91 254.56C865.772 254.564 865.636 254.536 865.51 254.48 865.005 254.257 864.776 253.666 865 253.161 865 253.161 865 253.16 865 253.16 866.3 250.23 865.48 248.86 864.44 247.16 863.26 245.16 861.91 242.93 864.27 238.62 864.546 238.134 865.164 237.964 865.65 238.24 866.136 238.516 866.306 239.134 866.03 239.62 864.22 242.93 865.03 244.36 866.16 246.17 867.29 247.98 868.54 250.17 866.83 254.03 866.65 254.368 866.293 254.574 865.91 254.56Z" fill="#2355D7"/></g></svg>