<svg width="64" height="64" xmlns="http://www.w3.org/2000/svg" xmlns:xlink="http://www.w3.org/1999/xlink" xml:space="preserve" overflow="hidden"><g transform="translate(-363 -181)"><path d="M395 206.18C394.869 206.178 394.74 206.151 394.62 206.1 394.114 205.888 393.873 205.308 394.08 204.8 396.267 199.543 401.912 196.613 407.47 197.85 408.008 197.98 408.34 198.521 408.21 199.06 408.08 199.598 407.539 199.93 407 199.8 406.3 199.648 405.586 199.571 404.87 199.57 400.93 199.556 397.373 201.928 395.87 205.57 395.721 205.923 395.383 206.16 395 206.18Z" fill="#1A4AFC"/><path d="M400.44 239C400.261 238.997 400.085 238.949 399.93 238.86L399.67 238.71C396.36 236.71 394.05 232.39 394.05 228.12 394.05 227.568 394.498 227.12 395.05 227.12 395.602 227.12 396.05 227.568 396.05 228.12 396.05 231.66 398.05 235.39 400.69 236.98L400.95 237.14C401.425 237.422 401.582 238.035 401.3 238.51 401.12 238.814 400.793 239 400.44 239Z" fill="#1A4AFC"/><path d="M391.06 219.18 391.06 219.18C390.508 219.18 390.06 218.732 390.06 218.18 390.111 215.906 390.715 213.678 391.82 211.69 392.221 210.987 392.679 210.318 393.19 209.69L393.19 209.32C393.19 208.768 393.638 208.32 394.19 208.32 394.742 208.32 395.19 208.768 395.19 209.32 395.19 209.54 395.19 209.75 395.19 209.96 395.205 210.224 395.115 210.482 394.94 210.68 394.412 211.299 393.946 211.969 393.55 212.68 392.597 214.377 392.078 216.284 392.04 218.23 392.014 218.755 391.586 219.17 391.06 219.18Z" fill="#1A4AFC"/><path d="M376 216C375.655 216.001 375.333 215.823 375.15 215.53 371.704 210.051 373.352 202.816 378.831 199.369 380.049 198.603 381.398 198.068 382.81 197.79 385.523 197.247 388.341 197.675 390.77 199 391.253 199.276 391.421 199.892 391.145 200.375 390.869 200.858 390.253 201.026 389.77 200.75 385.077 198.154 379.169 199.854 376.573 204.547 375.777 205.986 375.359 207.605 375.36 209.25 375.355 211.086 375.872 212.886 376.85 214.44 377.146 214.907 377.007 215.524 376.54 215.82 376.54 215.82 376.54 215.82 376.54 215.82 376.381 215.931 376.194 215.994 376 216Z" fill="#1A4AFC"/><path d="M414 215.94C413.813 215.941 413.629 215.889 413.47 215.79 413.001 215.499 412.857 214.882 413.148 214.413 413.149 214.412 413.149 214.411 413.15 214.41 414.108 212.871 414.614 211.093 414.61 209.28 414.584 204.736 411.431 200.808 407 199.8 406.3 199.648 405.586 199.571 404.87 199.57 399.524 199.553 395.177 203.874 395.16 209.22 395.16 209.24 395.16 209.26 395.16 209.28 395.16 209.5 395.16 209.71 395.16 209.92 395.207 210.459 394.817 210.937 394.28 211 393.729 211.04 393.25 210.626 393.21 210.075 393.21 210.073 393.21 210.072 393.21 210.07 393.21 209.81 393.21 209.55 393.21 209.29 393.218 202.812 398.476 197.566 404.954 197.574 405.8 197.575 406.644 197.667 407.47 197.85 413.788 199.281 417.751 205.562 416.32 211.881 416.033 213.15 415.536 214.363 414.85 215.47 414.667 215.763 414.345 215.941 414 215.94Z" fill="#1A4AFC"/><path d="M394.7 229.09C388.903 229.083 383.71 225.505 381.64 220.09 381.29 219.173 381.038 218.221 380.89 217.25 380.741 216.317 381.054 215.37 381.73 214.71 382.417 214.031 383.385 213.715 384.34 213.86 386.465 214.196 388.484 215.017 390.24 216.26 390.497 214.663 391.031 213.123 391.82 211.71 392.02 211.35 392.39 210.81 392.66 210.42 393.614 209.065 395.486 208.741 396.84 209.695 397.056 209.847 397.251 210.027 397.42 210.23 397.822 210.692 398.183 211.187 398.5 211.71 399.273 213.093 399.804 214.598 400.07 216.16 401.849 214.885 403.905 214.052 406.07 213.73 407.003 213.583 407.949 213.896 408.61 214.57 409.276 215.24 409.587 216.185 409.45 217.12 409.28 218.23 407.03 223.38 405.51 224.91L405.51 224.91C402.772 227.671 399.027 229.195 395.14 229.13ZM383.87 215.79C383.596 215.786 383.332 215.894 383.14 216.09 382.927 216.307 382.824 216.608 382.86 216.91 382.991 217.741 383.208 218.555 383.51 219.34 384.105 220.932 385.04 222.376 386.25 223.57 388.591 225.928 391.809 227.203 395.13 227.09 398.488 227.162 401.726 225.845 404.08 223.45 405.22 222.31 407.33 217.58 407.46 216.78 407.513 216.474 407.408 216.162 407.18 215.95 406.971 215.724 406.663 215.619 406.36 215.67 403.973 216.042 401.755 217.13 400 218.79 399.714 219.062 399.295 219.14 398.93 218.99 398.566 218.841 398.324 218.493 398.31 218.1 398.25 216.186 397.732 214.313 396.8 212.64 396.546 212.224 396.255 211.833 395.93 211.47 395.731 211.23 395.431 211.097 395.12 211.11 394.811 211.126 394.526 211.285 394.35 211.54 394.087 211.896 393.843 212.267 393.62 212.65 392.667 214.347 392.148 216.254 392.11 218.2 392.1 218.596 391.857 218.949 391.49 219.1 391.127 219.253 390.708 219.178 390.42 218.91 388.645 217.246 386.406 216.162 384 215.8ZM404.79 224.16 404.79 224.16Z" fill="#1A4AFC"/><path d="M395 206.18C394.869 206.178 394.74 206.151 394.62 206.1 394.114 205.888 393.873 205.308 394.08 204.8 395.886 200.418 400.16 197.561 404.9 197.57 405.27 197.57 405.65 197.57 406.02 197.62 404.575 191.611 398.533 187.911 392.524 189.356 388.435 190.339 385.243 193.531 384.26 197.62 386.517 197.445 388.778 197.924 390.77 199 391.253 199.276 391.421 199.892 391.145 200.375 390.869 200.858 390.253 201.026 389.77 200.75 387.763 199.662 385.44 199.308 383.2 199.75 382.887 199.81 382.564 199.717 382.33 199.5 382.097 199.282 381.982 198.967 382.02 198.65 382.862 191.42 389.405 186.241 396.636 187.083 402.73 187.792 407.528 192.613 408.21 198.71 408.249 199.032 408.13 199.352 407.89 199.57 407.648 199.787 407.316 199.872 407 199.8 406.3 199.648 405.586 199.571 404.87 199.57 400.93 199.556 397.373 201.928 395.87 205.57 395.721 205.923 395.383 206.16 395 206.18Z" fill="#1A4AFC"/><path d="M382.57 220.7C382.494 220.71 382.416 220.71 382.34 220.7 377.08 219.432 373.378 214.72 373.39 209.31 373.39 208.758 373.838 208.31 374.39 208.31 374.942 208.31 375.39 208.758 375.39 209.31 375.374 213.797 378.446 217.706 382.81 218.75 383.362 218.816 383.756 219.318 383.69 219.87 383.624 220.422 383.122 220.816 382.57 220.75Z" fill="#1A4AFC"/></g></svg>