<svg width="64" height="64" xmlns="http://www.w3.org/2000/svg" xmlns:xlink="http://www.w3.org/1999/xlink" xml:space="preserve" overflow="hidden"><g transform="translate(-38 -32)"><path d="M92.67 75C92.5806 75.0146 92.4894 75.0146 92.4 75 91.8708 74.8496 91.5625 74.3 91.71 73.77L93.58 67.01 86.24 67.01 81 69.8C80.8505 69.8847 80.6818 69.9295 80.51 69.93L46.33 69.93 47.33 73.63C47.4919 74.158 47.195 74.7173 46.667 74.8792 46.139 75.0411 45.5797 74.7442 45.4178 74.2162 45.4111 74.1943 45.4052 74.1723 45.4 74.15L44.06 69.15C43.978 68.8494 44.0409 68.5277 44.23 68.28 44.4209 68.032 44.717 67.8876 45.03 67.89L80.26 67.89 85.5 65.01C85.6474 64.9304 85.8125 64.8892 85.98 64.89L94.89 64.89C95.203 64.8876 95.4991 65.032 95.69 65.28 95.8757 65.5294 95.9348 65.8509 95.85 66.15L93.63 74.15C93.5577 74.6282 93.1534 74.9861 92.67 75Z" fill="#2355D7"/><path d="M90.75 82.15C89.8356 82.1653 88.9373 81.9077 88.17 81.41 87.7001 81.1092 87.1468 80.9656 86.59 81 86.028 80.9832 85.4751 81.1441 85.01 81.46 83.4351 82.4467 81.4349 82.4467 79.86 81.46 78.8962 80.8458 77.6638 80.8458 76.7 81.46 75.1213 82.4461 73.1187 82.4461 71.54 81.46 71.0875 81.1491 70.5488 80.9882 70 81 69.438 80.9832 68.8851 81.1441 68.42 81.46 66.8413 82.4461 64.8387 82.4461 63.26 81.46 62.7865 81.138 62.2221 80.9767 61.65 81 61.0912 80.9832 60.5414 81.1443 60.08 81.46 58.5013 82.4461 56.4987 82.4461 54.92 81.46 54.4592 81.143 53.909 80.9818 53.35 81 52.788 80.9832 52.2351 81.1441 51.77 81.46 51.0034 81.9593 50.1047 82.2171 49.19 82.2 48.2784 82.2176 47.3827 81.9597 46.62 81.46 46.1437 81.1359 45.5755 80.9746 45 81 44.4477 81 44 80.5523 44 80 44 79.4477 44.4477 79 45 79 45.9136 78.9805 46.8121 79.2347 47.58 79.73 48.0402 80.0492 48.5901 80.2138 49.15 80.2 49.713 80.2139 50.2661 80.0494 50.73 79.73 51.5085 79.2252 52.4227 78.9705 53.35 79 54.2605 78.9801 55.1559 79.2344 55.92 79.73 56.8801 80.3569 58.1199 80.3569 59.08 79.73 60.6589 78.7575 62.6511 78.7575 64.23 79.73 65.1901 80.3569 66.4299 80.3569 67.39 79.73 68.9689 78.7575 70.9611 78.7575 72.54 79.73 73.5001 80.3569 74.7399 80.3569 75.7 79.73 77.282 78.7557 79.278 78.7557 80.86 79.73 81.3196 80.0505 81.8699 80.2153 82.43 80.2 82.9954 80.1986 83.5455 80.0164 84 79.68 85.582 78.7057 87.578 78.7057 89.16 79.68 90.1239 80.306 91.3661 80.306 92.33 79.68 93.1056 79.1987 94.008 78.9617 94.92 79 95.4723 79 95.92 79.4477 95.92 80 95.92 80.5523 95.4723 81 94.92 81 94.3577 80.9804 93.8039 81.1416 93.34 81.46 92.564 81.9414 91.6626 82.1816 90.75 82.15Z" fill="#2355D7"/><path d="M52 63 47 63C45.3432 63 44 61.6569 44 60L44 58C44 56.3431 45.3432 55 47 55L52 55C53.6569 55 55 56.3431 55 58L55 60C55 61.6569 53.6569 63 52 63ZM47 57C46.4477 57 46 57.4477 46 58L46 60C46 60.5523 46.4477 61 47 61L52 61C52.5523 61 53 60.5523 53 60L53 58C53 57.4477 52.5523 57 52 57Z" fill="#2355D7"/><path d="M46.05 69.54C45.4977 69.54 45.05 69.0923 45.05 68.54L45.05 62.48C45.05 61.9277 45.4977 61.48 46.05 61.48 46.6023 61.48 47.05 61.9277 47.05 62.48L47.05 68.54C47.05 69.0923 46.6023 69.54 46.05 69.54Z" fill="#2355D7"/><path d="M54.64 69.54C54.1751 69.5559 53.7607 69.2492 53.64 68.8L52.01 62.74C51.8664 62.1905 52.1955 61.6286 52.745 61.485 53.2945 61.3414 53.8564 61.6705 54 62.22L55.62 68.28C55.7653 68.8128 55.4511 69.3625 54.9182 69.5078 54.9155 69.5085 54.9127 69.5093 54.91 69.51 54.8216 69.5312 54.7309 69.5413 54.64 69.54Z" fill="#2355D7"/><path d="M79.48 69.72C79.0811 69.7214 78.7196 69.4856 78.56 69.12 76.7936 65.022 78.6836 60.268 82.7816 58.5016 86.8795 56.7351 91.6336 58.6252 93.4 62.7231 93.8365 63.7359 94.0611 64.8272 94.06 65.93 94.06 66.4823 93.6123 66.93 93.06 66.93 92.5077 66.93 92.06 66.4823 92.06 65.93 92.06 62.5776 89.3424 59.86 85.99 59.86 82.6376 59.86 79.92 62.5776 79.92 65.93 79.9213 66.7547 80.0879 67.5708 80.41 68.33 80.6261 68.8354 80.3939 69.4205 79.89 69.64 79.7613 69.6978 79.621 69.7251 79.48 69.72Z" fill="#2355D7"/><path d="M60.45 69.54C60.0402 69.5404 59.6716 69.2907 59.52 68.91 59.1391 67.9559 58.9456 66.9373 58.95 65.91 58.9664 61.4693 62.5593 57.8719 67 57.85 67.5523 57.85 68 58.2977 68 58.85 68 59.4023 67.5523 59.85 67 59.85 63.6421 59.8568 60.9255 62.5844 60.9323 65.9423 60.9339 66.7051 61.079 67.4608 61.36 68.17 61.5646 68.683 61.3147 69.2647 60.8017 69.4693 60.8011 69.4696 60.8006 69.4698 60.8 69.47 60.6885 69.5141 60.5699 69.5378 60.45 69.54Z" fill="#2355D7"/><path d="M69.89 69.45C69.4777 69.4488 69.1084 69.1947 68.96 68.81 67.3473 64.6491 69.413 59.9688 73.5739 58.3561 74.507 57.9944 75.4992 57.8092 76.5 57.81 77.0523 57.81 77.5 58.2577 77.5 58.81 77.5 59.3623 77.0523 59.81 76.5 59.81 73.1483 59.821 70.4355 62.5383 70.43 65.89 70.4321 66.6315 70.5676 67.3665 70.83 68.06 71.0261 68.5763 70.7665 69.1538 70.2502 69.3499 70.2502 69.3499 70.2501 69.35 70.25 69.35 70.1364 69.4031 70.0147 69.4369 69.89 69.45Z" fill="#2355D7"/><path d="M87 54 65.85 54C65.2977 54 64.85 53.5523 64.85 53 64.85 52.4477 65.2977 52 65.85 52L87 52C87.5523 52 88 52.4477 88 53 88 53.5523 87.5523 54 87 54Z" fill="#2355D7"/><path d="M67 53.8C66.4477 53.8 66 53.3523 66 52.8L66 51.2C66 50.6477 66.4477 50.2 67 50.2 67.5523 50.2 68 50.6477 68 51.2L68 52.8C68 53.3523 67.5523 53.8 67 53.8Z" fill="#2355D7"/><path d="M86 53.8C85.4477 53.8 85 53.3523 85 52.8L85 51.2C85 50.6477 85.4477 50.2 86 50.2 86.5523 50.2 87 50.6477 87 51.2L87 52.8C87 53.3523 86.5523 53.8 86 53.8Z" fill="#2355D7"/><path d="M76.49 53.8C75.9377 53.8 75.49 53.3523 75.49 52.8L75.49 51.2C75.49 50.6477 75.9377 50.2 76.49 50.2 77.0423 50.2 77.49 50.6477 77.49 51.2L77.49 52.8C77.49 53.3523 77.0423 53.8 76.49 53.8Z" fill="#2355D7"/></g></svg>