<svg width="64" height="64" xmlns="http://www.w3.org/2000/svg" xmlns:xlink="http://www.w3.org/1999/xlink" xml:space="preserve" overflow="hidden"><g transform="translate(-513 -181)"><path d="M545 238.88C544.448 238.88 544 238.432 544 237.88L544 230C544 229.448 544.448 229 545 229 545.552 229 546 229.448 546 230L546 237.88C546 238.432 545.552 238.88 545 238.88Z" fill="#1A4AFC"/><path d="M545 197.08C544.448 197.08 544 196.632 544 196.08L544 188C544 187.448 544.448 187 545 187 545.552 187 546 187.448 546 188L546 196.08C546 196.632 545.552 197.08 545 197.08Z" fill="#1A4AFC"/><path d="M569.94 213.94 562 213.94C561.448 213.94 561 213.492 561 212.94 561 212.388 561.448 211.94 562 211.94L570 211.94C570.552 211.94 571 212.388 571 212.94 571 213.492 570.552 213.94 570 213.94Z" fill="#1A4AFC"/><path d="M528.08 213.94 520.08 213.94C519.528 213.94 519.08 213.492 519.08 212.94 519.08 212.388 519.528 211.94 520.08 211.94L528.08 211.94C528.632 211.94 529.08 212.388 529.08 212.94 529.08 213.492 528.632 213.94 528.08 213.94Z" fill="#1A4AFC"/><path d="M545 225C538.373 225 533 219.627 533 213 533 206.373 538.373 201 545 201 551.627 201 557 206.373 557 213 557 219.627 551.627 225 545 225ZM545 203C539.477 203 535 207.477 535 213 535 218.523 539.477 223 545 223 550.523 223 555 218.523 555 213 555 207.477 550.523 203 545 203Z" fill="#1A4AFC"/><path d="M562.57 231.63C562.304 231.632 562.049 231.527 561.86 231.34L556.3 225.77C555.912 225.38 555.912 224.75 556.3 224.36 556.69 223.972 557.32 223.972 557.71 224.36L563.28 229.93C563.668 230.32 563.668 230.95 563.28 231.34 563.091 231.527 562.836 231.632 562.57 231.63Z" fill="#1A4AFC"/><path d="M533 202.08C532.734 202.081 532.479 201.977 532.29 201.79L526.6 196.07C526.255 195.639 526.325 195.01 526.756 194.664 527.119 194.374 527.635 194.372 528 194.66L533.72 200.38C534.108 200.77 534.108 201.4 533.72 201.79 533.529 201.98 533.269 202.084 533 202.08Z" fill="#1A4AFC"/><path d="M556.94 202C556.388 202.003 555.937 201.558 555.934 201.006 555.933 200.737 556.039 200.479 556.23 200.29L561.86 194.66C562.249 194.268 562.882 194.265 563.274 194.654 563.276 194.656 563.278 194.658 563.28 194.66 563.668 195.05 563.668 195.68 563.28 196.07L557.64 201.71C557.454 201.895 557.202 201.999 556.94 202Z" fill="#1A4AFC"/><path d="M527.3 231.63C527.038 231.629 526.786 231.525 526.6 231.34 526.212 230.95 526.212 230.32 526.6 229.93L532.26 224.26C532.649 223.868 533.282 223.865 533.674 224.254 533.676 224.256 533.678 224.258 533.68 224.26 534.068 224.65 534.068 225.28 533.68 225.67L528 231.34C527.814 231.525 527.562 231.629 527.3 231.63Z" fill="#1A4AFC"/></g></svg>