<svg width="64" height="64" xmlns="http://www.w3.org/2000/svg" xmlns:xlink="http://www.w3.org/1999/xlink" xml:space="preserve" overflow="hidden"><g transform="translate(-960 -181)"><path d="M1005.74 234 987.88 234C986.223 234 984.88 232.657 984.88 231L984.88 204C984.88 202.343 986.223 201 987.88 201L1005.74 201C1007.4 201 1008.74 202.343 1008.74 204L1008.74 231C1008.74 232.657 1007.4 234 1005.74 234ZM987.88 203C987.328 203 986.88 203.448 986.88 204L986.88 231C986.88 231.552 987.328 232 987.88 232L1005.74 232C1006.29 232 1006.74 231.552 1006.74 231L1006.74 204C1006.74 203.448 1006.29 203 1005.74 203Z" fill="#1A4AFC"/><path d="M1007.89 227.72C1007.34 227.73 1006.88 227.291 1006.87 226.738 1006.87 226.561 1006.91 226.385 1007 226.23L1015.25 211.71C1016.29 209.954 1015.72 207.683 1013.96 206.639 1012.2 205.595 1009.93 206.172 1008.89 207.929 1008.87 207.969 1008.84 208.009 1008.82 208.05 1008.55 208.532 1007.94 208.705 1007.46 208.435 1007.46 208.434 1007.45 208.432 1007.45 208.43 1006.97 208.155 1006.81 207.548 1007.08 207.07 1008.63 204.331 1012.12 203.37 1014.85 204.925 1017.59 206.48 1018.55 209.961 1017 212.7L1008.76 227.22C1008.58 227.531 1008.25 227.721 1007.89 227.72Z" fill="#1A4AFC"/><path d="M981.29 210.39C981.029 210.392 980.778 210.291 980.59 210.11L972.37 202C971.375 201.014 970.03 200.464 968.63 200.47L967.25 200.47C966.698 200.47 966.25 200.022 966.25 199.47 966.25 198.918 966.698 198.47 967.25 198.47L968.63 198.47C970.558 198.466 972.409 199.224 973.78 200.58L982 208.68C982.392 209.069 982.395 209.702 982.006 210.094 981.819 210.283 981.565 210.389 981.3 210.39Z" fill="#1A4AFC"/><path d="M985.81 214.85C985.548 214.849 985.296 214.745 985.11 214.56L980.59 210.11C980.195 209.721 980.191 209.085 980.58 208.69 980.969 208.295 981.605 208.291 982 208.68L986.53 213.13C986.928 213.513 986.94 214.146 986.556 214.544 986.364 214.744 986.097 214.854 985.82 214.85Z" fill="#1A4AFC"/><path d="M985.88 232.48C985.522 232.489 985.186 232.306 985 232L971.92 209.29C970.961 207.641 969.198 206.624 967.29 206.62L967.29 206.62C966.738 206.62 966.29 206.172 966.29 205.62 966.29 205.068 966.738 204.62 967.29 204.62L967.29 204.62C969.913 204.621 972.337 206.02 973.65 208.29L986.75 231C987.021 231.478 986.856 232.085 986.38 232.36 986.227 232.443 986.054 232.484 985.88 232.48Z" fill="#1A4AFC"/><path d="M990.81 197.31C990.622 197.315 990.438 197.262 990.28 197.16 989.83 196.855 989.706 196.247 990 195.79 992.332 192.038 997.265 190.886 1001.02 193.219 1002.01 193.837 1002.86 194.667 1003.5 195.65 1003.77 196.134 1003.59 196.742 1003.11 197.008 1002.67 197.246 1002.13 197.132 1001.83 196.74 1000.03 193.96 996.311 193.169 993.531 194.973 992.791 195.453 992.166 196.09 991.7 196.84 991.51 197.145 991.17 197.325 990.81 197.31Z" fill="#1A4AFC"/><path d="M1002.73 197.36C1002.38 197.359 1002.06 197.177 1001.88 196.88L1001.79 196.74C1001.49 196.279 1001.61 195.659 1002.07 195.354 1002.08 195.353 1002.08 195.352 1002.08 195.35 1002.54 195.053 1003.16 195.187 1003.46 195.65L1003.58 195.84C1003.87 196.31 1003.72 196.922 1003.25 197.21 1003.09 197.307 1002.91 197.359 1002.73 197.36Z" fill="#1A4AFC"/></g></svg>