<svg width="64" height="64" xmlns="http://www.w3.org/2000/svg" xmlns:xlink="http://www.w3.org/1999/xlink" xml:space="preserve" overflow="hidden"><g transform="translate(-214 -181)"><path d="M224.51 239C222.03 239.011 220.011 237.01 220 234.53 220 234.523 220 234.517 220 234.51L220 216.51C220 214.025 222.015 212.01 224.5 212.01 226.985 212.01 229 214.025 229 216.51L229 234.51C229 236.99 226.99 239 224.51 239ZM224.51 214C223.129 213.995 222.006 215.109 222 216.49 222 216.49 222 216.49 222 216.49L222 234.49C222 235.871 223.119 236.99 224.5 236.99 225.881 236.99 227 235.871 227 234.49L227 216.49C226.995 215.117 225.883 214.005 224.51 214Z" fill="#1A4AFC"/><path d="M267.5 239C265.017 238.995 263.005 236.983 263 234.5L263 216.5C263 214.015 265.015 212 267.5 212 269.985 212 272 214.015 272 216.5L272 234.5C271.995 236.983 269.983 238.995 267.5 239ZM267.5 214C266.119 214 265 215.119 265 216.5L265 234.5C265 235.881 266.119 237 267.5 237 268.881 237 270 235.881 270 234.5L270 216.5C270 215.119 268.881 214 267.5 214Z" fill="#1A4AFC"/><path d="M235.76 218 228.42 218C227.868 218 227.42 217.552 227.42 217 227.42 216.448 227.868 216 228.42 216L235.76 216C236.312 216 236.76 216.448 236.76 217 236.76 217.552 236.312 218 235.76 218Z" fill="#1A4AFC"/><path d="M263.71 235 228.42 235C227.868 235 227.42 234.552 227.42 234 227.42 233.448 227.868 233 228.42 233L263.71 233C264.262 233 264.71 233.448 264.71 234 264.71 234.552 264.262 235 263.71 235Z" fill="#1A4AFC"/><path d="M263.71 218 256.21 218C255.658 218 255.21 217.552 255.21 217 255.21 216.448 255.658 216 256.21 216L263.71 216C264.262 216 264.71 216.448 264.71 217 264.71 217.552 264.262 218 263.71 218Z" fill="#1A4AFC"/><path d="M254 222 253 222C252.448 222 252 221.552 252 221 252 220.448 252.448 220 253 220L254 220C254.552 220 255 219.552 255 219L255 209C255 208.448 254.552 208 254 208L238 208C237.448 208 237 208.448 237 209L237 219C237 219.552 237.448 220 238 220L247 220C247.552 220 248 220.448 248 221 248 221.552 247.552 222 247 222L238 222C236.343 222 235 220.657 235 219L235 209C235 207.343 236.343 206 238 206L254 206C255.657 206 257 207.343 257 209L257 219C257 220.657 255.657 222 254 222Z" fill="#1A4AFC"/><path d="M250 207.8C249.448 207.8 249 207.352 249 206.8L249 200.2C249 199.648 249.448 199.2 250 199.2 250.552 199.2 251 199.648 251 200.2L251 206.8C251 207.352 250.552 207.8 250 207.8Z" fill="#1A4AFC"/><path d="M242 206.83C241.448 206.83 241 206.382 241 205.83L241 200.2C241 199.648 241.448 199.2 242 199.2 242.552 199.2 243 199.648 243 200.2L243 205.83C243 206.382 242.552 206.83 242 206.83Z" fill="#1A4AFC"/><path d="M242 193.89 242 193.89C241.448 193.89 241 193.442 241 192.89 241 190.129 243.239 187.89 246 187.89 248.761 187.89 251 190.129 251 192.89 251 193.442 250.552 193.89 250 193.89 249.448 193.89 249 193.442 249 192.89 248.941 191.276 247.615 189.999 246 190 244.374 189.999 243.043 191.294 243 192.92 242.984 193.46 242.541 193.89 242 193.89Z" fill="#1A4AFC"/><path d="M260.5 201 231.5 201C229.015 201 227 198.985 227 196.5 227 194.015 229.015 192 231.5 192L260.5 192C262.985 192 265 194.015 265 196.5 265 198.985 262.985 201 260.5 201ZM231.5 194C230.119 194 229 195.119 229 196.5 229 197.881 230.119 199 231.5 199L260.5 199C261.881 199 263 197.881 263 196.5 263 195.119 261.881 194 260.5 194Z" fill="#1A4AFC"/></g></svg>