<svg width="64" height="64" xmlns="http://www.w3.org/2000/svg" xmlns:xlink="http://www.w3.org/1999/xlink" xml:space="preserve" overflow="hidden"><g transform="translate(-364 -181)"><path d="M392 232.91 379 232.91C377.343 232.91 376 231.567 376 229.91L376 190C376 188.343 377.343 187 379 187L397 187C397.266 186.998 397.521 187.103 397.71 187.29L409.71 199.29C409.897 199.479 410.001 199.734 410 200L410 208C410 208.552 409.552 209 409 209 408.448 209 408 208.552 408 208L408 200.42 396.55 189 379 189C378.448 189 378 189.448 378 190L378 229.91C378 230.462 378.448 230.91 379 230.91L392 230.91C392.552 230.91 393 231.358 393 231.91 393 232.462 392.552 232.91 392 232.91Z" fill="#1A4AFC"/><path d="M409 201.2 398.78 201.2C397.123 201.2 395.78 199.857 395.78 198.2L395.78 188C395.78 187.448 396.228 187 396.78 187 397.332 187 397.78 187.448 397.78 188L397.78 198.2C397.78 198.752 398.228 199.2 398.78 199.2L409 199.2C409.552 199.2 410 199.648 410 200.2 410 200.752 409.552 201.2 409 201.2Z" fill="#1A4AFC"/><path d="M402.06 208.06 383 208.06C382.448 208.06 382 207.612 382 207.06 382 206.508 382.448 206.06 383 206.06L402.06 206.06C402.612 206.06 403.06 206.508 403.06 207.06 403.06 207.612 402.612 208.06 402.06 208.06Z" fill="#1A4AFC"/><path d="M396 214 383 214C382.448 214 382 213.552 382 213 382 212.448 382.448 212 383 212L396 212C396.552 212 397 212.448 397 213 397 213.552 396.552 214 396 214Z" fill="#1A4AFC"/><path d="M392 220 383 220C382.448 220 382 219.552 382 219 382 218.448 382.448 218 383 218L392 218C392.552 218 393 218.448 393 219 393 219.552 392.552 220 392 220Z" fill="#1A4AFC"/><path d="M409 239C401.82 239 396 233.18 396 226 396 218.82 401.82 213 409 213 416.18 213 422 218.82 422 226 422 233.18 416.18 239 409 239ZM409 215C402.925 215 398 219.925 398 226 398 232.075 402.925 237 409 237 415.075 237 420 232.075 420 226 420 219.925 415.075 215 409 215Z" fill="#1A4AFC"/><path d="M410.94 233 407.08 233C405.368 233 403.98 231.612 403.98 229.9L403.98 228.1C403.98 226.388 405.368 225 407.08 225L410.94 225C412.652 225 414.04 226.388 414.04 228.1L414.04 229.9C414.04 231.612 412.652 233 410.94 233ZM407.08 227C406.473 227 405.98 227.492 405.98 228.1L405.98 229.9C405.98 230.508 406.473 231 407.08 231L410.94 231C411.547 231 412.04 230.508 412.04 229.9L412.04 228.1C412.04 227.492 411.547 227 410.94 227Z" fill="#1A4AFC"/><path d="M412 227C411.448 227 411 226.552 411 226L411 223C411 222.467 410.788 221.956 410.41 221.58 410.035 221.208 409.528 221 409 221L409 221C408.146 221.001 407.387 221.543 407.11 222.35 406.928 222.872 406.357 223.147 405.835 222.965 405.313 222.783 405.038 222.212 405.22 221.69 405.778 220.08 407.296 219 409 219L409 219C411.209 219 413 220.791 413 223L413 226C413 226.552 412.552 227 412 227Z" fill="#1A4AFC"/></g></svg>