<svg width="64" height="64" xmlns="http://www.w3.org/2000/svg" xmlns:xlink="http://www.w3.org/1999/xlink" xml:space="preserve" overflow="hidden"><g transform="translate(-236 -199)"><path d="M281 231C273.82 231 268 225.18 268 218 268 210.82 273.82 205 281 205 288.18 205 294 210.82 294 218 294 225.18 288.18 231 281 231ZM281 207C274.925 207 270 211.925 270 218 270 224.075 274.925 229 281 229 287.075 229 292 224.075 292 218 292 211.925 287.075 207 281 207Z" fill="#1A4AFC"/><path d="M281 225C280.448 225 280 224.552 280 224L280 212C280 211.448 280.448 211 281 211 281.552 211 282 211.448 282 212L282 224C282 224.552 281.552 225 281 225Z" fill="#1A4AFC"/><path d="M285.77 218.55C285.483 218.55 285.21 218.426 285.02 218.21L280.24 212.64C279.845 212.254 279.837 211.621 280.223 211.226 280.609 210.831 281.242 210.823 281.637 211.209 281.678 211.249 281.716 211.293 281.75 211.34L286.53 216.9C286.889 217.32 286.84 217.951 286.42 218.31 286.239 218.465 286.008 218.55 285.77 218.55Z" fill="#1A4AFC"/><path d="M276.21 218.55C275.658 218.544 275.215 218.092 275.22 217.54 275.222 217.305 275.307 217.079 275.46 216.9L280.24 211.34C280.563 210.892 281.188 210.79 281.636 211.113 282.084 211.436 282.186 212.061 281.863 212.509 281.829 212.556 281.791 212.6 281.75 212.64L277 218.21C276.801 218.437 276.511 218.561 276.21 218.55Z" fill="#1A4AFC"/><path d="M266 235.67C265.825 235.671 265.652 235.626 265.5 235.54L248.5 225.7C248.02 225.428 247.851 224.817 248.123 224.337 248.212 224.18 248.343 224.049 248.5 223.96L262.5 215.86C262.977 215.581 263.589 215.741 263.868 216.217 263.869 216.218 263.87 216.219 263.87 216.22 264.147 216.698 263.984 217.31 263.506 217.587 263.504 217.588 263.502 217.589 263.5 217.59L251 224.83 266 233.52 269.57 231.45C270.051 231.174 270.664 231.34 270.94 231.82 271.216 232.301 271.051 232.914 270.57 233.19L266.5 235.54C266.348 235.626 266.175 235.671 266 235.67Z" fill="#1A4AFC"/><path d="M266.07 254.89C265.894 254.888 265.721 254.84 265.57 254.75L248.48 244.86C248.004 244.585 247.839 243.978 248.11 243.5 248.383 243.02 248.994 242.853 249.474 243.127 249.476 243.128 249.478 243.129 249.48 243.13L266.07 252.73 282.53 243.23C282.996 242.934 283.614 243.071 283.91 243.537 284.207 244.004 284.069 244.621 283.603 244.918 283.579 244.933 283.555 244.947 283.53 244.96L266.53 254.75C266.39 254.833 266.232 254.881 266.07 254.89Z" fill="#1A4AFC"/><path d="M266.07 254.67C265.518 254.67 265.07 254.222 265.07 253.67L265.07 234.76C265.07 234.208 265.518 233.76 266.07 233.76 266.622 233.76 267.07 234.208 267.07 234.76L267.07 253.67C267.07 254.222 266.622 254.67 266.07 254.67Z" fill="#1A4AFC"/><path d="M283 245.09C282.448 245.09 282 244.642 282 244.09L282 236C282 235.448 282.448 235 283 235 283.552 235 284 235.448 284 236L284 244.09C284 244.642 283.552 245.09 283 245.09Z" fill="#1A4AFC"/><path d="M249 245C248.448 245 248 244.552 248 244L248 225C248 224.448 248.448 224 249 224 249.552 224 250 224.448 250 225L250 244C250 244.552 249.552 245 249 245Z" fill="#1A4AFC"/><path d="M257.08 230.26C256.721 230.261 256.389 230.071 256.21 229.76 255.931 229.284 256.091 228.671 256.567 228.392 256.568 228.391 256.569 228.391 256.57 228.39L263.57 224.33C264.033 224.028 264.652 224.159 264.954 224.622 264.97 224.647 264.986 224.673 265 224.7 265.271 225.178 265.106 225.785 264.63 226.06L257.63 230.12C257.464 230.219 257.273 230.267 257.08 230.26Z" fill="#1A4AFC"/><path d="M270.05 246.9C269.5 246.945 269.017 246.535 268.972 245.984 268.939 245.57 269.165 245.178 269.54 245L276.54 241C277.018 240.723 277.63 240.886 277.907 241.364 277.908 241.366 277.909 241.368 277.91 241.37 278.181 241.848 278.016 242.455 277.54 242.73L270.54 246.73C270.395 246.829 270.225 246.887 270.05 246.9Z" fill="#1A4AFC"/><path d="M257 233.1C256.448 233.1 256 232.652 256 232.1L256 229.72C256 229.168 256.448 228.72 257 228.72 257.552 228.72 258 229.168 258 229.72L258 232.1C258 232.652 257.552 233.1 257 233.1Z" fill="#1A4AFC"/></g></svg>