<svg width="64" height="64" xmlns="http://www.w3.org/2000/svg" xmlns:xlink="http://www.w3.org/1999/xlink" xml:space="preserve" overflow="hidden"><g transform="translate(-533 -199)"><path d="M580.05 253C573.975 253 569.05 248.075 569.05 242 569.05 235.925 573.975 231 580.05 231 586.125 231 591.05 235.925 591.05 242 591.05 248.075 586.125 253 580.05 253ZM580.05 233C575.079 233 571.05 237.029 571.05 242 571.05 246.971 575.079 251 580.05 251 585.021 251 589.05 246.971 589.05 242 589.05 237.029 585.021 233 580.05 233Z" fill="#2355D7"/><path d="M581.45 247.31 577.1 247.31C576.548 247.31 576.1 246.862 576.1 246.31 576.1 245.758 576.548 245.31 577.1 245.31L581.45 245.31C582.174 245.31 582.76 244.723 582.76 244 582.76 243.277 582.174 242.69 581.45 242.69L578.45 242.69C576.743 242.69 575.36 241.307 575.36 239.6 575.36 237.893 576.743 236.51 578.45 236.51L582.35 236.51C582.902 236.51 583.35 236.958 583.35 237.51 583.35 238.062 582.902 238.51 582.35 238.51L578.45 238.51C577.848 238.51 577.36 238.998 577.36 239.6 577.36 240.202 577.848 240.69 578.45 240.69L581.45 240.69C583.278 240.69 584.76 242.172 584.76 244 584.76 245.828 583.278 247.31 581.45 247.31Z" fill="#2355D7"/><path d="M580.1 248.59C579.548 248.59 579.1 248.142 579.1 247.59L579.1 236.41C579.1 235.858 579.548 235.41 580.1 235.41 580.652 235.41 581.1 235.858 581.1 236.41L581.1 247.59C581.1 248.142 580.652 248.59 580.1 248.59Z" fill="#2355D7"/><path d="M550 253C543.925 253 539 248.075 539 242 539 235.925 543.925 231 550 231 556.075 231 561 235.925 561 242 561 248.075 556.075 253 550 253ZM550 233C545.029 233 541 237.029 541 242 541 246.971 545.029 251 550 251 554.971 251 559 246.971 559 242 559 237.029 554.971 233 550 233Z" fill="#2355D7"/><path d="M552.9 247.78 549.81 247.78C547.297 247.78 545.26 245.743 545.26 243.23L545.26 240.77C545.26 238.257 547.297 236.22 549.81 236.22L552.9 236.22C553.452 236.22 553.9 236.668 553.9 237.22 553.9 237.772 553.452 238.22 552.9 238.22L549.81 238.22C548.402 238.22 547.26 239.362 547.26 240.77L547.26 243.23C547.26 244.638 548.402 245.78 549.81 245.78L552.9 245.78C553.452 245.78 553.9 246.228 553.9 246.78 553.9 247.332 553.452 247.78 552.9 247.78Z" fill="#2355D7"/><path d="M551.17 243 545 243C544.448 243 544 242.552 544 242 544 241.448 544.448 241 545 241L551.16 241C551.712 241 552.16 241.448 552.16 242 552.16 242.552 551.712 243 551.16 243Z" fill="#2355D7"/><path d="M562.61 222C562.058 222 561.61 221.552 561.61 221L561.61 216.4C561.55 216.268 561.519 216.125 561.52 215.98 561.521 215.839 561.551 215.699 561.61 215.57L561.61 211C561.61 210.448 562.058 210 562.61 210L566.77 210C568.703 210 570.27 211.567 570.27 213.5 570.27 215.433 568.703 217 566.77 217L563.61 217 563.61 221C563.61 221.552 563.162 222 562.61 222ZM563.61 215 566.77 215C567.598 215 568.27 214.328 568.27 213.5 568.27 212.672 567.598 212 566.77 212L563.61 212Z" fill="#2355D7"/><path d="M566.78 220 560.78 220C560.228 220 559.78 219.552 559.78 219 559.78 218.448 560.228 218 560.78 218L566.78 218C567.332 218 567.78 218.448 567.78 219 567.78 219.552 567.332 220 566.78 220Z" fill="#2355D7"/><path d="M562.93 217 560.75 217C560.198 217 559.75 216.552 559.75 216 559.75 215.448 560.198 215 560.75 215L562.93 215C563.482 215 563.93 215.448 563.93 216 563.93 216.552 563.482 217 562.93 217Z" fill="#2355D7"/><path d="M565 227C558.925 227 554 222.075 554 216 554 209.925 558.925 205 565 205 571.075 205 576 209.925 576 216 576 222.075 571.075 227 565 227ZM565 207C560.029 207 556 211.029 556 216 556 220.971 560.029 225 565 225 569.971 225 574 220.971 574 216 574 211.029 569.971 207 565 207Z" fill="#2355D7"/><path d="M565 255.79C563.235 255.79 561.476 255.582 559.76 255.17L559.48 255.1C558.944 254.962 558.622 254.416 558.76 253.88 558.898 253.344 559.444 253.022 559.98 253.16L560.23 253.22C563.478 253.994 566.865 253.966 570.1 253.14 570.636 253.002 571.182 253.324 571.32 253.86 571.458 254.396 571.136 254.942 570.6 255.08 568.771 255.552 566.889 255.79 565 255.79Z" fill="#2355D7"/><path d="M544.37 228.68C544.28 228.69 544.19 228.69 544.1 228.68 543.567 228.536 543.252 227.986 543.396 227.453 543.398 227.449 543.399 227.444 543.4 227.44 543.906 225.622 544.639 223.875 545.58 222.24 546.457 220.706 547.515 219.283 548.73 218L548.92 217.79C549.304 217.39 549.94 217.376 550.34 217.76 550.74 218.144 550.754 218.78 550.37 219.18L550.18 219.37C547.881 221.806 546.216 224.77 545.33 228 545.191 228.411 544.804 228.685 544.37 228.68Z" fill="#2355D7"/><path d="M585.6 228.57C585.138 228.587 584.724 228.285 584.6 227.84L584.53 227.59C584.074 226.05 583.437 224.569 582.63 223.18 581.77 221.688 580.725 220.31 579.52 219.08 579.133 218.671 579.151 218.027 579.56 217.64 579.969 217.253 580.613 217.271 581 217.68 582.32 219.032 583.465 220.544 584.41 222.18 585.291 223.699 585.989 225.317 586.49 227L586.57 227.28C586.723 227.811 586.417 228.365 585.887 228.518 585.884 228.519 585.882 228.519 585.88 228.52 585.789 228.547 585.695 228.563 585.6 228.57Z" fill="#2355D7"/><path d="M550 223.69C549.481 223.692 549.047 223.297 549 222.78L548.71 219.55 545.49 219.83C544.938 219.88 544.45 219.472 544.4 218.92 544.35 218.368 544.758 217.88 545.31 217.83L549.53 217.46C550.08 217.408 550.568 217.812 550.619 218.362 550.62 218.365 550.62 218.367 550.62 218.37L551 222.61C551.046 223.159 550.639 223.642 550.09 223.69Z" fill="#2355D7"/><path d="M585.65 228.67C585.501 228.667 585.355 228.633 585.22 228.57L581.4 226.74C580.9 226.503 580.688 225.905 580.925 225.405 581.162 224.905 581.76 224.693 582.26 224.93L585.18 226.33 586.59 223.41C586.792 222.896 587.372 222.643 587.886 222.845 588.4 223.047 588.654 223.627 588.452 224.141 588.434 224.186 588.414 224.229 588.39 224.27L586.55 228.1C586.435 228.339 586.23 228.522 585.98 228.61 585.875 228.651 585.763 228.671 585.65 228.67Z" fill="#2355D7"/><path d="M562.21 258.58C561.885 258.582 561.579 258.425 561.39 258.16L558.92 254.73C558.594 254.284 558.691 253.659 559.137 253.333 559.138 253.332 559.139 253.331 559.14 253.33L562.59 250.85C563.035 250.53 563.655 250.628 563.98 251.07 564.306 251.516 564.209 252.141 563.763 252.467 563.762 252.468 563.761 252.469 563.76 252.47L561.12 254.37 563 257C563.318 257.448 563.216 258.069 562.77 258.39 562.607 258.508 562.412 258.575 562.21 258.58Z" fill="#2355D7"/></g></svg>