<svg width="64" height="64" xmlns="http://www.w3.org/2000/svg" xmlns:xlink="http://www.w3.org/1999/xlink" xml:space="preserve" overflow="hidden"><g transform="translate(-14 -47)"><path d="M69 87.08 23.06 87.08C21.4032 87.08 20.06 85.7369 20.06 84.08L20.06 70.08C20.06 68.4231 21.4032 67.08 23.06 67.08L62.27 67.08C63.0422 67.0741 63.7858 67.3722 64.34 67.91 66.5952 69.9743 68.7006 72.1966 70.64 74.56 71.4805 75.8926 71.9499 77.4253 72 79L72 84.07C72.0055 85.7268 70.6669 87.0745 69.01 87.08 69.0067 87.08 69.0033 87.08 69 87.08ZM23.1 69.08C22.5477 69.08 22.1 69.5277 22.1 70.08L22.1 84.08C22.1 84.6323 22.5477 85.08 23.1 85.08L69 85.08C69.5523 85.08 70 84.6323 70 84.08L70 79C69.9643 77.8153 69.6196 76.6604 69 75.65 67.1414 73.4198 65.137 71.3151 63 69.35 62.8131 69.175 62.5661 69.0783 62.31 69.08Z" fill="#1A4AFC"/><path d="M27.94 90.38C25.7309 90.38 23.94 88.5891 23.94 86.38 23.94 85.8277 24.3877 85.38 24.94 85.38 25.4923 85.38 25.94 85.8277 25.94 86.38 25.7343 87.4652 26.4472 88.5118 27.5325 88.7175 28.6177 88.9233 29.6643 88.2103 29.87 87.125 29.9167 86.8789 29.9167 86.6262 29.87 86.38 29.87 85.8277 30.3177 85.38 30.87 85.38 31.4223 85.38 31.87 85.8277 31.87 86.38 31.8703 88.5621 30.1218 90.3418 27.94 90.38Z" fill="#1A4AFC"/><path d="M37.86 90.38C35.6509 90.38 33.86 88.5891 33.86 86.38 33.86 85.8277 34.3077 85.38 34.86 85.38 35.4123 85.38 35.86 85.8277 35.86 86.38 35.6402 87.4625 36.3395 88.5182 37.422 88.738 38.5045 88.9578 39.5602 88.2585 39.78 87.176 39.8333 86.9133 39.8333 86.6427 39.78 86.38 39.78 85.8277 40.2277 85.38 40.78 85.38 41.3323 85.38 41.78 85.8277 41.78 86.38 41.7804 88.5583 40.0378 90.3364 37.86 90.38Z" fill="#1A4AFC"/><path d="M63.19 90.38C60.9809 90.38 59.19 88.5891 59.19 86.38 59.19 85.8277 59.6377 85.38 60.19 85.38 60.7423 85.38 61.19 85.8277 61.19 86.38 60.9843 87.4652 61.6972 88.5118 62.7825 88.7175 63.8677 88.9233 64.9143 88.2103 65.12 87.125 65.1667 86.8789 65.1667 86.6262 65.12 86.38 65.12 85.8277 65.5677 85.38 66.12 85.38 66.6723 85.38 67.12 85.8277 67.12 86.38 67.1203 88.5621 65.3718 90.3418 63.19 90.38Z" fill="#1A4AFC"/><path d="M53 90.38C50.7909 90.38 49 88.5891 49 86.38 49 85.8277 49.4477 85.38 50 85.38 50.5523 85.38 51 85.8277 51 86.38 50.7802 87.4625 51.4795 88.5182 52.562 88.738 53.6445 88.9578 54.7002 88.2585 54.92 87.176 54.9733 86.9133 54.9733 86.6427 54.92 86.38 54.92 85.8277 55.3677 85.38 55.92 85.38 56.4723 85.38 56.92 85.8277 56.92 86.38 56.9204 88.5583 55.1778 90.3364 53 90.38Z" fill="#1A4AFC"/><path d="M46 86.79C45.4477 86.79 45 86.3423 45 85.79L45 74.37C45 73.8177 45.4477 73.37 46 73.37 46.5523 73.37 47 73.8177 47 74.37L47 85.79C47 86.3423 46.5523 86.79 46 86.79Z" fill="#1A4AFC"/><path d="M52 86.83C51.4477 86.83 51 86.3823 51 85.83L51 76.06C51 75.5077 50.5523 75.06 50 75.06L42 75.06C41.4477 75.06 41 75.5077 41 76.06L41 85.83C41 86.3823 40.5523 86.83 40 86.83 39.4477 86.83 39 86.3823 39 85.83L39 76.06C39 74.4031 40.3431 73.06 42 73.06L50 73.06C51.6569 73.06 53 74.4031 53 76.06L53 85.83C53 86.3823 52.5523 86.83 52 86.83Z" fill="#1A4AFC"/><path d="M32 81.12 27.1 81.12C26.5477 81.12 26.1 80.6723 26.1 80.12 26.1 79.5677 26.5477 79.12 27.1 79.12L32 79.12C32.5523 79.12 33 78.6723 33 78.12L33 76C33 75.4477 32.5523 75 32 75L21.42 75C20.8677 75 20.42 74.5523 20.42 74 20.42 73.4477 20.8677 73 21.42 73L32 73C33.6569 73 35 74.3431 35 76L35 78.12C35 79.7769 33.6569 81.12 32 81.12Z" fill="#1A4AFC"/><path d="M70.54 81.12 67.79 81.12C64.5881 81.0926 62.0054 78.492 62 75.29L62 68.75C62 68.1977 62.4477 67.75 63 67.75 63.5523 67.75 64 68.1977 64 68.75L64 75.29C64.0055 77.403 65.717 79.1145 67.83 79.12L70.58 79.12C71.1323 79.12 71.58 79.5677 71.58 80.12 71.58 80.6723 71.1323 81.12 70.58 81.12Z" fill="#1A4AFC"/></g></svg>